<svg width="19" height="12" viewBox="0 0 19 12" fill="none" xmlns="http://www.w3.org/2000/svg">
<path d="M4.8569 0.000693056C4.66801 0.0179148 4.49375 0.0932162 4.36846 0.211755C4.24317 0.330294 4.17595 0.483472 4.18003 0.641097V11.3605C4.17861 11.444 4.19721 11.527 4.23477 11.6045C4.27232 11.6821 4.32807 11.7526 4.39879 11.8121C4.4695 11.8716 4.55376 11.9189 4.64668 11.9511C4.73959 11.9834 4.8393 12 4.94002 12C5.04074 12 5.14045 11.9834 5.23336 11.9511C5.32628 11.9189 5.41054 11.8716 5.48125 11.8121C5.55196 11.7526 5.60772 11.6821 5.64527 11.6045C5.68282 11.527 5.70143 11.444 5.70001 11.3605V0.641097C5.7016 0.556633 5.68272 0.472764 5.6445 0.39447C5.60627 0.316175 5.54947 0.245051 5.47748 0.185319C5.40549 0.125586 5.31976 0.0784637 5.2254 0.0467484C5.13103 0.015033 5.02995 -0.000628615 4.92814 0.000693056C4.90441 -0.000231019 4.88063 -0.000231019 4.8569 0.000693056ZM13.9767 0.000693056C13.7878 0.0179148 13.6136 0.0932162 13.4883 0.211755C13.363 0.330294 13.2958 0.483472 13.2999 0.641097V11.3605C13.2984 11.444 13.317 11.527 13.3546 11.6045C13.3922 11.6821 13.4479 11.7526 13.5186 11.8121C13.5893 11.8716 13.6736 11.9189 13.7665 11.9511C13.8594 11.9834 13.9591 12 14.0599 12C14.1606 12 14.2603 11.9834 14.3532 11.9511C14.4461 11.9189 14.5304 11.8716 14.6011 11.8121C14.6718 11.7526 14.7275 11.6821 14.7651 11.6045C14.8027 11.527 14.8213 11.444 14.8198 11.3605V0.641097C14.8214 0.556633 14.8026 0.472764 14.7643 0.39447C14.7261 0.316175 14.6693 0.245051 14.5973 0.185319C14.5253 0.125586 14.4396 0.0784637 14.3452 0.0467484C14.2509 0.015033 14.1498 -0.000628615 14.048 0.000693056C14.0242 -0.000231019 14.0005 -0.000231019 13.9767 0.000693056ZM2.57694 2.83817C2.38805 2.8554 2.21379 2.9307 2.0885 3.04924C1.96321 3.16778 1.89599 3.32095 1.90008 3.47858V8.52299C1.89865 8.60654 1.91726 8.6895 1.95481 8.76704C1.99236 8.84458 2.04812 8.91515 2.11883 8.97465C2.18954 9.03416 2.2738 9.08141 2.36672 9.11366C2.45963 9.14591 2.55934 9.16252 2.66006 9.16252C2.76078 9.16252 2.86049 9.14591 2.9534 9.11366C3.04632 9.08141 3.13058 9.03416 3.20129 8.97465C3.27201 8.91515 3.32776 8.84458 3.36531 8.76704C3.40287 8.6895 3.42147 8.60654 3.42005 8.52299V3.47858C3.42164 3.39411 3.40276 3.31024 3.36454 3.23195C3.32631 3.15366 3.26952 3.08253 3.19752 3.0228C3.12553 2.96307 3.03981 2.91594 2.94544 2.88423C2.85107 2.85251 2.74999 2.83685 2.64819 2.83817C2.62445 2.83725 2.60067 2.83725 2.57694 2.83817ZM16.2567 2.83817C16.0678 2.8554 15.8935 2.9307 15.7682 3.04924C15.643 3.16778 15.5757 3.32095 15.5798 3.47858V8.52299C15.5784 8.60654 15.597 8.6895 15.6346 8.76704C15.6721 8.84458 15.7279 8.91515 15.7986 8.97465C15.8693 9.03416 15.9536 9.08141 16.0465 9.11366C16.1394 9.14591 16.2391 9.16252 16.3398 9.16252C16.4405 9.16252 16.5402 9.14591 16.6332 9.11366C16.7261 9.08141 16.8103 9.03416 16.881 8.97465C16.9518 8.91515 17.0075 8.84458 17.0451 8.76704C17.0826 8.6895 17.1012 8.60654 17.0998 8.52299V3.47858C17.1014 3.39411 17.0825 3.31024 17.0443 3.23195C17.0061 3.15366 16.9493 3.08253 16.8773 3.0228C16.8053 2.96307 16.7196 2.91594 16.6252 2.88423C16.5308 2.85251 16.4297 2.83685 16.3279 2.83817C16.3042 2.83725 16.2804 2.83725 16.2567 2.83817ZM7.13685 3.15345C6.94797 3.17067 6.7737 3.24597 6.64842 3.36451C6.52313 3.48305 6.4559 3.63623 6.45999 3.79385V8.20771C6.45857 8.29127 6.47717 8.37422 6.51473 8.45176C6.55228 8.5293 6.60803 8.59987 6.67875 8.65938C6.74946 8.71888 6.83372 8.76613 6.92663 8.79838C7.01955 8.83064 7.11926 8.84724 7.21998 8.84724C7.32069 8.84724 7.42041 8.83064 7.51332 8.79838C7.60624 8.76613 7.6905 8.71888 7.76121 8.65938C7.83192 8.59987 7.88767 8.5293 7.92523 8.45176C7.96278 8.37422 7.98139 8.29127 7.97996 8.20771V3.79385C7.98156 3.70939 7.96268 3.62552 7.92445 3.54723C7.88623 3.46893 7.82943 3.39781 7.75744 3.33807C7.68545 3.27834 7.59972 3.23122 7.50536 3.1995C7.41099 3.16779 7.3099 3.15213 7.2081 3.15345C7.18437 3.15253 7.16059 3.15253 7.13685 3.15345ZM11.6968 3.15345C11.5079 3.17067 11.3336 3.24597 11.2083 3.36451C11.083 3.48305 11.0158 3.63623 11.0199 3.79385V8.20771C11.0185 8.29127 11.0371 8.37422 11.0746 8.45176C11.1122 8.5293 11.1679 8.59987 11.2387 8.65938C11.3094 8.71888 11.3936 8.76613 11.4865 8.79838C11.5795 8.83064 11.6792 8.84724 11.7799 8.84724C11.8806 8.84724 11.9803 8.83064 12.0732 8.79838C12.1662 8.76613 12.2504 8.71888 12.3211 8.65938C12.3918 8.59987 12.4476 8.5293 12.4851 8.45176C12.5227 8.37422 12.5413 8.29127 12.5399 8.20771V3.79385C12.5415 3.70939 12.5226 3.62552 12.4844 3.54723C12.4461 3.46893 12.3893 3.39781 12.3174 3.33807C12.2454 3.27834 12.1596 3.23122 12.0653 3.1995C11.9709 3.16779 11.8698 3.15213 11.768 3.15345C11.7443 3.15253 11.7205 3.15253 11.6968 3.15345ZM0.344479 4.72983C0.328407 4.73226 0.312541 4.73555 0.29698 4.73968C0.211176 4.75562 0.13469 4.79576 0.0805574 4.85325C0.0264243 4.91074 -0.0020064 4.98202 0.000110195 5.05496V6.94661C-0.000601929 6.98839 0.00870076 7.02987 0.0274776 7.06863C0.0462545 7.1074 0.0741311 7.14269 0.109487 7.17244C0.144844 7.2022 0.186974 7.22582 0.233431 7.24195C0.279888 7.25807 0.329745 7.26638 0.380103 7.26638C0.430462 7.26638 0.480318 7.25807 0.526775 7.24195C0.573232 7.22582 0.615363 7.2022 0.650719 7.17244C0.686075 7.14269 0.713952 7.1074 0.732729 7.06863C0.751506 7.02987 0.760808 6.98839 0.760096 6.94661V5.05496C0.762021 5.01013 0.752394 4.96547 0.731858 4.92397C0.711323 4.88247 0.680351 4.84509 0.641012 4.81432C0.601673 4.78354 0.554873 4.76009 0.503736 4.74552C0.4526 4.73095 0.398306 4.7256 0.344479 4.72983ZM9.41681 4.72983C9.22792 4.74705 9.05366 4.82235 8.92838 4.94089C8.80309 5.05943 8.73586 5.21261 8.73995 5.37023V6.63133C8.73852 6.71489 8.75713 6.79785 8.79468 6.87538C8.83224 6.95292 8.88799 7.02349 8.9587 7.083C9.02942 7.1425 9.11368 7.18975 9.20659 7.22201C9.2995 7.25426 9.39922 7.27087 9.49994 7.27087C9.60065 7.27087 9.70037 7.25426 9.79328 7.22201C9.88619 7.18975 9.97045 7.1425 10.0412 7.083C10.1119 7.02349 10.1676 6.95292 10.2052 6.87538C10.2427 6.79785 10.2613 6.71489 10.2599 6.63133V5.37023C10.2615 5.28577 10.2426 5.2019 10.2044 5.1236C10.1662 5.04531 10.1094 4.97419 10.0374 4.91445C9.9654 4.85472 9.87968 4.8076 9.78531 4.77588C9.69095 4.74417 9.58986 4.72851 9.48806 4.72983C9.46432 4.7289 9.44055 4.7289 9.41681 4.72983ZM18.5841 4.72983C18.5681 4.73226 18.5522 4.73555 18.5366 4.73968C18.4508 4.75562 18.3744 4.79576 18.3202 4.85325C18.2661 4.91074 18.2377 4.98202 18.2398 5.05496V6.94661C18.2391 6.98839 18.2484 7.02987 18.2671 7.06863C18.2859 7.1074 18.3138 7.14269 18.3492 7.17244C18.3845 7.2022 18.4266 7.22582 18.4731 7.24195C18.5196 7.25807 18.5694 7.26638 18.6198 7.26638C18.6701 7.26638 18.72 7.25807 18.7664 7.24195C18.8129 7.22582 18.855 7.2022 18.8904 7.17244C18.9257 7.14269 18.9536 7.1074 18.9724 7.06863C18.9912 7.02987 19.0005 6.98839 18.9998 6.94661V5.05496C19.0017 5.01013 18.9921 4.96547 18.9715 4.92397C18.951 4.88247 18.92 4.84509 18.8807 4.81432C18.8413 4.78354 18.7945 4.76009 18.7434 4.74552C18.6923 4.73095 18.638 4.7256 18.5841 4.72983Z" fill="white"/>
</svg>
