<svg width="41" height="37" viewBox="0 0 41 37" fill="none" xmlns="http://www.w3.org/2000/svg">
<path d="M35.6069 8.89453H5.53295C3.68639 8.89453 2.18945 10.3915 2.18945 12.238V32.2815C2.18945 34.1281 3.68639 35.625 5.53295 35.625H35.6069C37.4535 35.625 38.9504 34.1281 38.9504 32.2815V12.238C38.9504 10.3915 37.4535 8.89453 35.6069 8.89453Z" stroke="#006066" stroke-width="2.59836" stroke-miterlimit="10" stroke-linecap="square"/>
<path d="M23.9142 20.6748H32.2642C33.1489 20.6772 34.0253 20.5035 34.8423 20.1639C35.6592 19.8243 36.4005 19.3256 37.0228 18.6967C37.6451 18.0679 38.1361 17.3215 38.4672 16.501C38.7983 15.6805 38.9628 14.8024 38.9512 13.9178V12.1672C38.9512 11.2805 38.5989 10.43 37.9719 9.80302C37.3449 9.17599 36.4944 8.82373 35.6077 8.82373H5.53369C5.08866 8.82363 4.64809 8.91238 4.2378 9.08477C3.82752 9.25716 3.45578 9.50972 3.14437 9.82764C2.83296 10.1456 2.58816 10.5225 2.42431 10.9362C2.26046 11.35 2.18087 11.7923 2.19019 12.2373V13.9878C2.18788 14.8666 2.35926 15.7372 2.6945 16.5495C3.02973 17.3619 3.52221 18.0999 4.14361 18.7213C4.76502 19.3428 5.5031 19.8352 6.31545 20.1705C7.1278 20.5057 7.99839 20.6771 8.87718 20.6748H23.9142Z" stroke="#006066" stroke-width="2.59836" stroke-miterlimit="10"/>
<path d="M20.5693 18.9243V22.2678" stroke="#006066" stroke-width="2.59836" stroke-miterlimit="10" stroke-linecap="square"/>
<path d="M27.2568 8.8941H13.8828L15.3654 3.01001C15.4818 2.54824 15.8971 2.22461 16.3733 2.22461H24.7664C25.2426 2.22461 25.6579 2.54824 25.7742 3.01001L27.2568 8.8941Z" stroke="#006066" stroke-width="2.59836" stroke-miterlimit="10" stroke-linecap="square"/>
</svg>
