<svg width="22" height="22" viewBox="0 0 22 22" fill="none" xmlns="http://www.w3.org/2000/svg">
<path fill-rule="evenodd" clip-rule="evenodd" d="M11.8445 3.38042V4.22573C11.8293 4.97543 10.6179 5.40274 10.235 4.58366C10.184 4.47115 10.1569 4.34927 10.1555 4.22573V3.38042H7.62286C6.9728 3.34911 6.53744 2.49872 6.98463 1.98171C7.13848 1.80402 7.26275 1.70756 7.62286 1.68979C8.46651 1.68979 9.31101 1.68725 10.1555 1.68217V0.845316C10.1533 0.755187 10.1676 0.665415 10.1978 0.580467C10.3094 0.241156 10.6433 0 11.0169 0C11.4675 0.0177694 11.8344 0.355388 11.8445 0.845316V1.67202C13.5326 1.66186 15.2216 1.65255 16.9106 1.66102V0.845316C16.9191 0.393465 17.2488 0.0194617 17.7382 0H17.7712C18.2226 0.0177694 18.5895 0.355388 18.5988 0.845316V1.67625L19.5058 1.69063C20.8 1.73125 21.9514 2.84564 21.9759 4.19442C22.008 9.28578 22.008 14.378 21.9759 19.4702C21.9522 20.7775 20.822 21.9486 19.4745 21.974C13.8251 22.0087 8.17487 22.0087 2.52546 21.974C1.22448 21.9494 0.0494524 20.841 0.0240922 19.4702C-0.00803074 14.378 -0.00803074 9.28578 0.0240922 4.19442C0.0477618 2.8778 1.1746 1.69909 2.5542 1.68979H3.40123V0.845316C3.39856 0.755159 3.4129 0.665306 3.4435 0.580467C3.55508 0.241156 3.88899 0 4.26179 0C4.7132 0.0177694 5.08008 0.355388 5.08938 0.845316V4.22573C5.07501 4.97459 3.89829 5.39428 3.49506 4.61412C3.43433 4.49362 3.40222 4.3607 3.40123 4.22573V3.37703C3.11268 3.37477 2.82412 3.3759 2.5356 3.38042C2.10701 3.39396 1.72576 3.76965 1.71224 4.20458C1.61798 9.28901 1.61798 14.3748 1.71224 19.4592C1.72576 19.889 2.1011 20.2698 2.5356 20.2833C8.17805 20.3883 13.822 20.3883 19.4644 20.2833C19.893 20.2698 20.2742 19.8941 20.2878 19.4592C20.3816 14.3754 20.3816 9.28832 20.2878 4.20458C20.275 3.98611 20.1809 3.78035 20.0242 3.62782C19.8674 3.47528 19.6593 3.38702 19.4407 3.38042H18.5988V4.22573C18.5844 4.96782 17.4043 5.38667 17.0045 4.61412C16.9441 4.49347 16.912 4.36065 16.9106 4.22573V3.38042H11.8445ZM4.24488 16.9029C4.35808 16.8993 4.47086 16.9186 4.57649 16.9595C4.68213 17.0003 4.77848 17.0621 4.85983 17.141C4.94117 17.2198 5.00585 17.3143 5.05002 17.4187C5.09419 17.5231 5.11695 17.6353 5.11695 17.7487C5.11695 17.862 5.09419 17.9743 5.05002 18.0787C5.00585 18.183 4.94117 18.2775 4.85983 18.3564C4.77848 18.4353 4.68213 18.497 4.57649 18.5379C4.47086 18.5788 4.35808 18.598 4.24488 18.5944C4.02542 18.5875 3.81727 18.4953 3.66449 18.3375C3.5117 18.1796 3.42627 17.9685 3.42627 17.7487C3.42627 17.5289 3.5117 17.3177 3.66449 17.1599C3.81727 17.002 4.02542 16.9099 4.24488 16.9029ZM7.62286 16.9029C7.73695 16.8979 7.85086 16.9161 7.95773 16.9564C8.06459 16.9967 8.1622 17.0582 8.24465 17.1373C8.3271 17.2164 8.39269 17.3114 8.43746 17.4165C8.48223 17.5217 8.50526 17.6348 8.50514 17.7491C8.50503 17.8634 8.48178 17.9765 8.4368 18.0816C8.39182 18.1867 8.32604 18.2815 8.24343 18.3604C8.16082 18.4393 8.06309 18.5007 7.95614 18.5408C7.84919 18.5808 7.73525 18.5988 7.62117 18.5936C7.40374 18.5836 7.19853 18.4901 7.04826 18.3325C6.89799 18.1749 6.81424 17.9653 6.81446 17.7474C6.81468 17.5296 6.89884 17.3202 7.04943 17.1629C7.20001 17.0056 7.40541 16.9125 7.62286 16.9029ZM11 16.9029C11.2174 16.9127 11.4227 17.006 11.5732 17.1635C11.7236 17.3209 11.8075 17.5304 11.8075 17.7482C11.8075 17.9661 11.7236 18.1756 11.5732 18.333C11.4227 18.4905 11.2174 18.5838 11 18.5936C10.7826 18.5838 10.5773 18.4905 10.4268 18.333C10.2764 18.1756 10.1925 17.9661 10.1925 17.7482C10.1925 17.5304 10.2764 17.3209 10.4268 17.1635C10.5773 17.006 10.7826 16.9127 11 16.9029ZM4.24488 13.5225C4.35797 13.5189 4.47063 13.5381 4.57617 13.579C4.6817 13.6198 4.77796 13.6815 4.85922 13.7603C4.94049 13.8391 5.0051 13.9335 5.04923 14.0378C5.09335 14.142 5.11609 14.2541 5.11609 14.3674C5.11609 14.4807 5.09335 14.5928 5.04923 14.6971C5.0051 14.8014 4.94049 14.8957 4.85922 14.9745C4.77796 15.0533 4.6817 15.115 4.57617 15.1558C4.47063 15.1967 4.35797 15.2159 4.24488 15.2123C4.02564 15.2054 3.8177 15.1133 3.66507 14.9556C3.51244 14.7979 3.4271 14.587 3.4271 14.3674C3.4271 14.1478 3.51244 13.9369 3.66507 13.7792C3.8177 13.6215 4.02564 13.5295 4.24488 13.5225ZM7.62286 13.5225C7.84672 13.5225 8.06142 13.6115 8.21971 13.77C8.37801 13.9284 8.46694 14.1433 8.46694 14.3674C8.46694 14.5915 8.37801 14.8064 8.21971 14.9648C8.06142 15.1233 7.84672 15.2123 7.62286 15.2123C7.399 15.2123 7.18431 15.1233 7.02601 14.9648C6.86772 14.8064 6.77879 14.5915 6.77879 14.3674C6.77879 14.1433 6.86772 13.9284 7.02601 13.77C7.18431 13.6115 7.399 13.5225 7.62286 13.5225ZM11 13.5225C11.1132 13.5189 11.226 13.5382 11.3316 13.579C11.4373 13.6199 11.5336 13.6817 11.6149 13.7605C11.6963 13.8394 11.761 13.9339 11.8051 14.0383C11.8493 14.1427 11.8721 14.2549 11.8721 14.3683C11.8721 14.4816 11.8493 14.5938 11.8051 14.6982C11.761 14.8026 11.6963 14.8971 11.6149 14.976C11.5336 15.0549 11.4373 15.1166 11.3316 15.1575C11.226 15.1984 11.1132 15.2176 11 15.214C10.7805 15.207 10.5724 15.1149 10.4196 14.957C10.2668 14.7992 10.1814 14.588 10.1814 14.3683C10.1814 14.1485 10.2668 13.9373 10.4196 13.7795C10.5724 13.6216 10.7805 13.5295 11 13.5225ZM14.3771 13.5225C14.4903 13.5189 14.6031 13.5382 14.7088 13.579C14.8144 13.6199 14.9107 13.6817 14.9921 13.7605C15.0734 13.8394 15.1381 13.9339 15.1823 14.0383C15.2264 14.1427 15.2492 14.2549 15.2492 14.3683C15.2492 14.4816 15.2264 14.5938 15.1823 14.6982C15.1381 14.8026 15.0734 14.8971 14.9921 14.976C14.9107 15.0549 14.8144 15.1166 14.7088 15.1575C14.6031 15.1984 14.4903 15.2176 14.3771 15.214C14.1577 15.207 13.9495 15.1149 13.7967 14.957C13.644 14.7992 13.5585 14.588 13.5585 14.3683C13.5585 14.1485 13.644 13.9373 13.7967 13.7795C13.9495 13.6216 14.1577 13.5295 14.3771 13.5225ZM17.7543 13.5225C17.8674 13.5189 17.98 13.5381 18.0856 13.579C18.1911 13.6198 18.2874 13.6815 18.3686 13.7603C18.4499 13.8391 18.5145 13.9335 18.5586 14.0378C18.6027 14.142 18.6255 14.2541 18.6255 14.3674C18.6255 14.4807 18.6027 14.5928 18.5586 14.6971C18.5145 14.8014 18.4499 14.8957 18.3686 14.9745C18.2874 15.0533 18.1911 15.115 18.0856 15.1558C17.98 15.1967 17.8674 15.2159 17.7543 15.2123C17.535 15.2054 17.3271 15.1133 17.1745 14.9556C17.0218 14.7979 16.9365 14.587 16.9365 14.3674C16.9365 14.1478 17.0218 13.9369 17.1745 13.7792C17.3271 13.6215 17.535 13.5295 17.7543 13.5225ZM7.62286 10.1421C7.73365 10.1421 7.84336 10.1639 7.94571 10.2064C8.04807 10.2488 8.14107 10.311 8.21941 10.3894C8.29775 10.4679 8.3599 10.5609 8.40229 10.6634C8.44469 10.7659 8.46651 10.8757 8.46651 10.9866C8.46651 11.0975 8.44469 11.2073 8.40229 11.3097C8.3599 11.4122 8.29775 11.5053 8.21941 11.5837C8.14107 11.6621 8.04807 11.7243 7.94571 11.7668C7.84336 11.8092 7.73365 11.831 7.62286 11.831C7.39911 11.831 7.18453 11.7421 7.02631 11.5837C6.8681 11.4253 6.77921 11.2105 6.77921 10.9866C6.77921 10.7626 6.8681 10.5478 7.02631 10.3894C7.18453 10.2311 7.39911 10.1421 7.62286 10.1421ZM11 10.1421C11.1141 10.137 11.228 10.1551 11.3349 10.1952C11.4418 10.2354 11.5395 10.2969 11.622 10.3759C11.7046 10.4549 11.7702 10.5498 11.8151 10.6549C11.86 10.76 11.8831 10.8731 11.8831 10.9874C11.8831 11.1017 11.86 11.2148 11.8151 11.3199C11.7702 11.4251 11.7046 11.52 11.622 11.599C11.5395 11.678 11.4418 11.7394 11.3349 11.7796C11.228 11.8198 11.1141 11.8378 11 11.8327C10.7826 11.823 10.5773 11.7297 10.4268 11.5722C10.2764 11.4148 10.1925 11.2053 10.1925 10.9874C10.1925 10.7695 10.2764 10.5601 10.4268 10.4026C10.5773 10.2452 10.7826 10.1518 11 10.1421ZM14.3771 10.1421C14.4912 10.137 14.6051 10.1551 14.7121 10.1952C14.819 10.2354 14.9166 10.2969 14.9992 10.3759C15.0817 10.4549 15.1474 10.5498 15.1923 10.6549C15.2371 10.76 15.2603 10.8731 15.2603 10.9874C15.2603 11.1017 15.2371 11.2148 15.1923 11.3199C15.1474 11.4251 15.0817 11.52 14.9992 11.599C14.9166 11.678 14.819 11.7394 14.7121 11.7796C14.6051 11.8198 14.4912 11.8378 14.3771 11.8327C14.1597 11.823 13.9544 11.7297 13.804 11.5722C13.6535 11.4148 13.5696 11.2053 13.5696 10.9874C13.5696 10.7695 13.6535 10.5601 13.804 10.4026C13.9544 10.2452 14.1597 10.1518 14.3771 10.1421ZM17.7543 10.1421C17.9781 10.142 18.1929 10.2309 18.3512 10.3893C18.5096 10.5476 18.5987 10.7625 18.5988 10.9866C18.5989 11.2106 18.5101 11.4256 18.3518 11.5841C18.1936 11.7426 17.979 11.8318 17.7551 11.8319C17.6443 11.8319 17.5345 11.8101 17.4321 11.7677C17.3296 11.7253 17.2366 11.6631 17.1581 11.5847C17.0797 11.5063 17.0175 11.4132 16.975 11.3107C16.9326 11.2082 16.9107 11.0984 16.9106 10.9874C16.9106 10.8765 16.9323 10.7666 16.9747 10.6641C17.0171 10.5615 17.0792 10.4684 17.1575 10.3899C17.2359 10.3114 17.3289 10.2491 17.4313 10.2066C17.5337 10.1641 17.6434 10.1422 17.7543 10.1421Z" fill="#BFBFBF"/>
</svg>
