<svg width="39" height="39" viewBox="0 0 39 39" fill="none" xmlns="http://www.w3.org/2000/svg">
<g clip-path="url(#clip0_1224_88603)">
<path d="M39 19.5C39 30.2704 30.2704 39 19.5 39C8.7296 39 0 30.2704 0 19.5C0 8.7296 8.7296 0 19.5 0C30.2704 0 39 8.7296 39 19.5Z" fill="url(#paint0_radial_1224_88603)"/>
<path d="M37 19.5C37 29.1627 29.168 37 19.5 37C9.83202 37 2 29.1627 2 19.5C2 9.83733 9.83733 2 19.5 2C29.1627 2 37 9.83202 37 19.5Z" fill="url(#paint1_radial_1224_88603)"/>
<g style="mix-blend-mode:color-dodge">
<path d="M19.2184 1.89233C24.9705 1.89233 30.1176 4.6994 33.5084 9.08246C33.9117 9.52288 34.3415 9.91025 34.7129 10.3878C35.5514 12.001 36.6232 15.0362 36.8196 16.5114C35.8326 5.80843 26.5571 1.36169 19.2184 1.36169C11.158 1.36169 1.99921 7.01828 1.99921 18.1245C2.498 17.18 3.23028 12.4361 3.89358 11.6136C7.09862 5.80843 12.4262 1.89233 19.2184 1.89233Z" fill="#281818"/>
</g>
<g style="mix-blend-mode:color-dodge">
<path d="M26.4411 2.8315C24.6104 1.75961 20.6253 1.23428 18.3382 1.36163C16.3218 1.47307 13.6527 2.05146 12.22 2.64577C11.4824 2.95354 11.5779 3.53194 12.3208 3.22417C13.4352 2.75721 16.6561 1.94003 18.2162 1.82859C20.2008 1.69063 23.7401 2.25841 26.0059 3.13396C26.9239 3.48948 28.0383 3.76542 26.4411 2.8315Z" fill="#281818"/>
</g>
</g>
<path d="M25.6364 13.8619C24.8795 13.5934 24.0477 13.4783 23.25 13.4783C22.2044 13.4783 21.0956 13.6681 20.1888 14.1596C19.7659 14.3889 19.2341 14.3889 18.8112 14.1596C17.9044 13.6681 16.7956 13.4783 15.75 13.4783C14.5742 13.4783 13.3184 13.7183 12.3599 14.3576C12.1217 14.5164 12 14.794 12 15.0803V25.8696C12 26.0614 12.1705 26.2532 12.3409 26.2532C12.4563 26.2532 12.564 26.1853 12.6672 26.1338C13.5774 25.6791 14.8159 25.3709 15.75 25.3709C16.8204 25.3709 17.9572 25.5698 18.8755 26.0878C19.2656 26.3078 19.7548 26.3355 20.1574 26.1392C21.0906 25.6843 22.331 25.3709 23.25 25.3709C24.375 25.3709 25.5341 25.601 26.4886 26.1765C26.5568 26.2148 26.5909 26.2148 26.6591 26.2148C26.8295 26.2148 27 26.023 27 25.8312V15.0836C27 14.7954 26.8768 14.5159 26.6363 14.357C26.3293 14.1542 26.0001 13.9983 25.6364 13.8619ZM25.6364 22.8306C25.6364 23.5074 24.9579 23.9886 24.2867 23.9015C23.9446 23.8571 23.5973 23.8363 23.25 23.8363C22.6485 23.8363 21.9092 23.9706 21.2086 24.191C20.4512 24.4292 19.5 23.8891 19.5 23.0952V16.6695C19.5 16.3522 19.6512 16.0499 19.9299 15.8983C20.8807 15.381 22.2541 15.0128 23.25 15.0128C23.8335 15.0128 24.4171 15.0713 24.9759 15.2023C25.3781 15.2966 25.6364 15.6721 25.6364 16.0852V22.8306Z" fill="white"/>
<path d="M23.2496 18.0817C23.8496 18.0817 24.4292 18.1507 24.9542 18.2812V17.1149C24.4155 16.9998 23.836 16.9308 23.2496 16.9308C22.0905 16.9308 21.0405 17.1533 20.1815 17.5676V18.8413C20.9519 18.3502 22.0224 18.0817 23.2496 18.0817Z" fill="white"/>
<path d="M20.1813 19.6084V20.882C20.9517 20.391 22.0222 20.1225 23.2495 20.1225C23.8495 20.1225 24.429 20.1915 24.954 20.3219V19.1557C24.4154 19.0406 23.8358 18.9716 23.2495 18.9716C22.0904 18.9716 21.0404 19.2017 20.1813 19.6084Z" fill="white"/>
<path d="M23.2495 21.0194C22.0904 21.0194 21.0404 21.2419 20.1813 21.6562V22.9299C20.9517 22.4388 22.0222 22.1703 23.2495 22.1703C23.8495 22.1703 24.429 22.2394 24.954 22.3698V21.2036C24.4154 21.0808 23.8358 21.0194 23.2495 21.0194Z" fill="white"/>
<defs>
<radialGradient id="paint0_radial_1224_88603" cx="0" cy="0" r="1" gradientUnits="userSpaceOnUse" gradientTransform="translate(18.7745 -2.66334) scale(56.52)">
<stop stop-color="#297D65"/>
<stop offset="0.11" stop-color="#277760"/>
<stop offset="0.24" stop-color="#226953"/>
<stop offset="0.39" stop-color="#19503E"/>
<stop offset="0.54" stop-color="#0E2E20"/>
<stop offset="0.63" stop-color="#07180D"/>
</radialGradient>
<radialGradient id="paint1_radial_1224_88603" cx="0" cy="0" r="1" gradientUnits="userSpaceOnUse" gradientTransform="translate(19.0702 1.6604) scale(35.5147)">
<stop stop-color="#366859"/>
<stop offset="0.2" stop-color="#315E50"/>
<stop offset="0.55" stop-color="#244437"/>
<stop offset="0.98" stop-color="#101A10"/>
<stop offset="1" stop-color="#10190F"/>
</radialGradient>
<clipPath id="clip0_1224_88603">
<rect width="39" height="39" fill="white"/>
</clipPath>
</defs>
</svg>
