<svg width="11" height="13" viewBox="0 0 11 13" fill="none" xmlns="http://www.w3.org/2000/svg">
<path d="M9.0063 10.7918C9.0063 10.9112 8.95885 11.0258 8.8744 11.1102C8.78995 11.1947 8.67541 11.2421 8.55598 11.2421H1.35094C1.23151 11.2421 1.11697 11.1947 1.03252 11.1102C0.948074 11.0258 0.90063 10.9112 0.90063 10.7918V1.3352H5.40378V0.43457H0V10.7918C0 11.1501 0.142331 11.4937 0.395683 11.7471C0.649034 12.0004 0.992652 12.1428 1.35094 12.1428H8.55598C8.91428 12.1428 9.25789 12.0004 9.51124 11.7471C9.7646 11.4937 9.90693 11.1501 9.90693 10.7918V4.93772H9.0063V10.7918Z" fill="white"/>
<path d="M9.96063 0.380841C9.70292 0.136317 9.36121 0 9.00596 0C8.65071 0 8.309 0.136317 8.05129 0.380841L5.40344 3.02419L4.95312 5.41086L7.31728 4.93803L9.96063 2.29468C10.0866 2.16917 10.1865 2.02004 10.2547 1.85583C10.3229 1.69162 10.358 1.51556 10.358 1.33776C10.358 1.15996 10.3229 0.983902 10.2547 0.819693C10.1865 0.655483 10.0866 0.506348 9.96063 0.380841ZM6.87147 4.10494L6.07891 4.26256L6.23652 3.47L7.73157 1.97045L8.37102 2.6099L6.87147 4.10494ZM9.32568 1.65523L9.00596 1.97045L8.37102 1.33551L8.68624 1.01578C8.7281 0.973578 8.7779 0.940077 8.83278 0.917215C8.88765 0.894353 8.94651 0.882583 9.00596 0.882583C9.06541 0.882583 9.12426 0.894353 9.17914 0.917215C9.23401 0.940077 9.28382 0.973578 9.32568 1.01578C9.36789 1.05765 9.40139 1.10745 9.42425 1.16233C9.44711 1.2172 9.45889 1.27606 9.45889 1.33551C9.45889 1.39496 9.44711 1.45381 9.42425 1.50869C9.40139 1.56356 9.36789 1.61337 9.32568 1.65523Z" fill="white"/>
</svg>
