<svg width="18" height="17" viewBox="0 0 18 17" fill="none" xmlns="http://www.w3.org/2000/svg">
<path d="M15.5826 2.57715L15.5826 2.57715C16.4216 2.60821 17.083 3.24933 17.0487 4.01924V14.4639C17.0487 15.2841 16.3889 16.05 15.479 16.05H2.52099C1.61104 16.05 0.951232 15.2841 0.951232 14.4639V4.01919C0.949843 3.98768 0.94962 3.95608 0.950605 3.92452L15.5826 2.57715ZM15.5826 2.57715C15.5479 2.57588 15.5131 2.57566 15.4783 2.57653M15.5826 2.57715L15.4783 2.57653M15.4783 2.57653H14.2491V1.63254C14.2492 1.41371 14.1328 1.2414 13.9623 1.12578C13.7926 1.01077 13.5674 0.95 13.3393 0.95H12.1595C11.9311 0.95 11.7292 1.01095 11.5833 1.12819C11.4362 1.24636 11.3496 1.41897 11.3496 1.63254V2.57649H6.65036V1.63254C6.65036 1.41897 6.5638 1.24636 6.41671 1.12819C6.27077 1.01095 6.06884 0.95 5.84048 0.95H4.66065C4.43257 0.95 4.20739 1.01077 4.03771 1.12578C3.86713 1.2414 3.7508 1.41371 3.7508 1.63254V2.57649H2.52165C1.68232 2.55566 0.974374 3.15434 0.950606 3.9245L15.4783 2.57653ZM16.1489 4.01306L16.1491 4.01308C16.152 3.98465 16.1524 3.956 16.1504 3.92747C16.129 3.62059 15.834 3.37925 15.4818 3.39931L15.479 3.39947V3.39939H14.2492V3.74698C14.2492 3.96481 14.1339 4.15007 13.9645 4.27921C13.7954 4.40817 13.5697 4.48373 13.3393 4.48373H12.1601C12.146 4.48408 12.1318 4.48408 12.1177 4.48371C12.1177 4.48371 12.1177 4.48371 12.1177 4.48371L12.119 4.43373L16.1489 4.01306ZM16.1489 4.01306V4.01808V6.01026H1.85111V4.01808H1.85136L1.85086 4.01309C1.82024 3.70763 2.06997 3.42927 2.42096 3.40054L2.42096 3.40054C2.45324 3.39789 2.48576 3.3975 2.51815 3.39934L2.51814 3.39942H2.52099H3.7508V3.74702C3.7508 3.96485 3.86606 4.1501 4.03543 4.27925C4.20454 4.40821 4.43028 4.48376 4.66065 4.48376H5.83986C6.27072 4.49415 6.63812 4.18624 6.65033 3.78522C6.65074 3.77223 6.65075 3.75924 6.65036 3.74626V3.39939H11.3496V3.74623L16.1489 4.01306ZM12.2095 1.77289H13.3493V3.66084H12.2095V1.77289ZM4.71069 1.77289H5.75052V3.66084H4.71069V1.77289Z" fill="white" stroke="white" stroke-width="0.1"/>
<path d="M7.54181 10.3017C7.70089 10.2792 7.83568 10.1787 7.89643 10.0375L8.70703 8.5L9.51762 10.0375C9.57842 10.1787 9.71316 10.2792 9.87225 10.3017L11.6708 10.542L10.3789 11.7191C10.2585 11.8321 10.2021 11.9926 10.2269 12.1515L10.5308 13.8571L8.93496 13.0404L8.70698 12.9923L8.479 13.0404L6.88312 13.8571L7.18708 12.1515C7.21191 11.9926 7.15542 11.8321 7.03508 11.7191L5.74316 10.542L7.54181 10.3017Z" fill="#244336"/>
</svg>
