<svg width="20" height="14" viewBox="0 0 20 14" fill="none" xmlns="http://www.w3.org/2000/svg">
<path d="M2.44824 13.7295C2.0957 14.0174 1.60215 14.0831 1.18281 13.8899C0.763477 13.6967 0.5 13.2848 0.5 12.8328V1.16823C0.5 0.71623 0.767188 0.304326 1.18281 0.111132C1.59844 -0.0820621 2.09199 -0.0200942 2.44824 0.271519L8.8125 5.48046V7.0005V8.52053L2.44824 13.7295ZM10 10.4999V7.0005V2.33468V1.16823C10 0.71623 10.2672 0.304326 10.6828 0.111132C11.0984 -0.0820621 11.592 -0.0200942 11.9482 0.271519L19.0732 6.10379C19.3441 6.32614 19.5 6.65421 19.5 7.0005C19.5 7.34679 19.3441 7.67485 19.0732 7.89721L11.9482 13.7295C11.5957 14.0174 11.1021 14.0831 10.6828 13.8899C10.2635 13.6967 10 13.2848 10 12.8328V10.4999Z" fill="#006066"/>
</svg>
