<svg width="25" height="24" viewBox="0 0 25 24" fill="none" xmlns="http://www.w3.org/2000/svg">
<path d="M20.0518 5.27052C20.4043 4.98255 20.8979 4.91694 21.3172 5.11014C21.7365 5.30333 22 5.71523 22 6.16723L22 17.8318C22 18.2838 21.7328 18.6957 21.3172 18.8889C20.9016 19.0821 20.408 19.0201 20.0518 18.7285L13.6875 13.5195L13.6875 11.9995L13.6875 10.4795L20.0518 5.27052ZM12.5 8.50014L12.5 11.9995L12.5 16.6653L12.5 17.8318C12.5 18.2838 12.2328 18.6957 11.8172 18.8889C11.4016 19.0821 10.908 19.0201 10.5518 18.7285L3.42676 12.8962C3.15586 12.6739 3 12.3458 3 11.9995C3 11.6532 3.15586 11.3251 3.42676 11.1028L10.5518 5.27052C10.9043 4.98255 11.3979 4.91694 11.8172 5.11013C12.2365 5.30333 12.5 5.71523 12.5 6.16723L12.5 8.50014Z" fill="#006066"/>
</svg>
