<svg width="15" height="15" viewBox="0 0 15 15" fill="none" xmlns="http://www.w3.org/2000/svg">
<path d="M10.2083 0.875C9.48997 0.875 8.86891 1.28818 8.60203 1.875H1H0.875V2V3V3.125H1H8.60203C8.86891 3.71182 9.48997 4.125 10.2083 4.125C10.9267 4.125 11.5478 3.71182 11.8146 3.125H14H14.125V3V2V1.875H14H11.8146C11.5478 1.28818 10.9267 0.875 10.2083 0.875ZM4.79167 5.875C4.07331 5.875 3.45224 6.28818 3.18536 6.875H1H0.875V7V8V8.125H1H3.18536C3.45224 8.71182 4.07331 9.125 4.79167 9.125C5.51003 9.125 6.13109 8.71182 6.39797 8.125H14H14.125V8V7V6.875H14H6.39797C6.13109 6.28818 5.51003 5.875 4.79167 5.875ZM10.2083 10.875C9.48997 10.875 8.86891 11.2882 8.60203 11.875H1H0.875V12V13V13.125H1H8.60203C8.86891 13.7118 9.48997 14.125 10.2083 14.125C10.9267 14.125 11.5478 13.7118 11.8146 13.125H14H14.125V13V12V11.875H14H11.8146C11.5478 11.2882 10.9267 10.875 10.2083 10.875ZM10.2083 2.125C10.4545 2.125 10.625 2.2962 10.625 2.5C10.625 2.7038 10.4545 2.875 10.2083 2.875C9.96219 2.875 9.79167 2.7038 9.79167 2.5C9.79167 2.2962 9.96219 2.125 10.2083 2.125ZM4.79167 7.125C5.03781 7.125 5.20833 7.2962 5.20833 7.5C5.20833 7.7038 5.03781 7.875 4.79167 7.875C4.54552 7.875 4.375 7.7038 4.375 7.5C4.375 7.2962 4.54552 7.125 4.79167 7.125ZM10.2083 12.125C10.4545 12.125 10.625 12.2962 10.625 12.5C10.625 12.7038 10.4545 12.875 10.2083 12.875C9.96219 12.875 9.79167 12.7038 9.79167 12.5C9.79167 12.2962 9.96219 12.125 10.2083 12.125Z" fill="#006066" stroke="#006066" stroke-width="0.25"/>
</svg>
