<svg width="17" height="16" viewBox="0 0 17 16" fill="none" xmlns="http://www.w3.org/2000/svg">
<path d="M16.8592 2.18182C16.8592 0.976836 15.8824 0 14.6774 0H11.7683C11.3666 0 11.041 0.325614 11.041 0.727272C11.041 1.12893 11.3666 1.45454 11.7683 1.45454H14.6774C15.0791 1.45454 15.4047 1.78016 15.4047 2.18182V5.09091C15.4047 5.49257 15.7303 5.81818 16.1319 5.81818C16.5336 5.81818 16.8592 5.49257 16.8592 5.09091V2.18182Z" fill="#AEAEAE"/>
<path d="M16.8592 10.9089C16.8592 10.5072 16.5336 10.1816 16.1319 10.1816C15.7303 10.1816 15.4047 10.5072 15.4047 10.9089V13.818C15.4047 14.2197 15.0791 14.5453 14.6774 14.5453H11.7683C11.3666 14.5453 11.041 14.8709 11.041 15.2725C11.041 15.6742 11.3666 15.9998 11.7683 15.9998H14.6774C15.8824 15.9998 16.8592 15.023 16.8592 13.818V10.9089Z" fill="#AEAEAE"/>
<path d="M3.04119 14.5453C2.63953 14.5453 2.31392 14.2197 2.31392 13.818V10.9089C2.31392 10.5072 1.98831 10.1816 1.58665 10.1816C1.18499 10.1816 0.859375 10.5072 0.859375 10.9089V13.818C0.859375 15.023 1.83621 15.9998 3.04119 15.9998H5.95028C6.35194 15.9998 6.67755 15.6742 6.67755 15.2725C6.67755 14.8709 6.35194 14.5453 5.95028 14.5453H3.04119Z" fill="#AEAEAE"/>
<path d="M0.859375 5.09091C0.859375 5.49257 1.18499 5.81818 1.58665 5.81818C1.98831 5.81818 2.31392 5.49257 2.31392 5.09091V2.18182C2.31392 1.78016 2.63953 1.45454 3.04119 1.45454H5.95028C6.35194 1.45454 6.67755 1.12893 6.67755 0.727272C6.67755 0.325614 6.35194 0 5.95028 0H3.04119C1.83621 0 0.859375 0.976836 0.859375 2.18182V5.09091Z" fill="#AEAEAE"/>
<path fill-rule="evenodd" clip-rule="evenodd" d="M8.13219 3.63645C8.13219 3.23479 7.80659 2.90918 7.40492 2.90918H4.49583C4.09417 2.90918 3.76855 3.23479 3.76855 3.63645V6.54554C3.76855 6.94721 4.09417 7.27281 4.49583 7.27281H7.40492C7.80659 7.27281 8.13219 6.94721 8.13219 6.54554V3.63645ZM6.67764 4.72736C6.67764 4.52653 6.51484 4.36372 6.31401 4.36372H5.58674C5.38591 4.36372 5.2231 4.52653 5.2231 4.72736V5.45463C5.2231 5.65546 5.38591 5.81827 5.58674 5.81827H6.31401C6.51484 5.81827 6.67764 5.65546 6.67764 5.45463V4.72736Z" fill="#AEAEAE"/>
<path fill-rule="evenodd" clip-rule="evenodd" d="M13.2233 8.72754C13.6249 8.72754 13.9505 9.05314 13.9505 9.45481V12.3639C13.9505 12.7656 13.6249 13.0912 13.2233 13.0912H10.3142C9.91251 13.0912 9.58691 12.7656 9.58691 12.3639V9.45481C9.58691 9.05314 9.91251 8.72754 10.3142 8.72754H13.2233ZM11.0415 10.5457C11.0415 10.3449 11.2043 10.1821 11.4051 10.1821H12.1324C12.3332 10.1821 12.496 10.3449 12.496 10.5457V11.273C12.496 11.4738 12.3332 11.6366 12.1324 11.6366H11.4051C11.2043 11.6366 11.0415 11.4738 11.0415 11.273V10.5457Z" fill="#AEAEAE"/>
<path d="M10.3142 2.90918C9.91251 2.90918 9.58691 3.23479 9.58691 3.63645C9.58691 4.03812 9.91251 4.36372 10.3142 4.36372H12.1324C12.3332 4.36372 12.496 4.52653 12.496 4.72736V6.54554C12.496 6.94721 12.8216 7.27281 13.2233 7.27281C13.6249 7.27281 13.9505 6.94721 13.9505 6.54554V3.63645C13.9505 3.23479 13.6249 2.90918 13.2233 2.90918H10.3142Z" fill="#AEAEAE"/>
<path d="M10.3142 5.09082C9.91251 5.09082 9.58691 5.41643 9.58691 5.81809V6.54537C9.58691 6.94704 9.91251 7.27264 10.3142 7.27264C10.7159 7.27264 11.0415 6.94704 11.0415 6.54537V5.81809C11.0415 5.41643 10.7159 5.09082 10.3142 5.09082Z" fill="#AEAEAE"/>
<path d="M4.49583 8.72754C4.09417 8.72754 3.76855 9.05314 3.76855 9.45481V10.9094C3.76855 11.311 4.09417 11.6366 4.49583 11.6366C4.89749 11.6366 5.2231 11.311 5.2231 10.9094V10.5457C5.2231 10.3449 5.38591 10.1821 5.58674 10.1821H7.40492C7.80659 10.1821 8.13219 9.85648 8.13219 9.45481C8.13219 9.05314 7.80659 8.72754 7.40492 8.72754H4.49583Z" fill="#AEAEAE"/>
<path d="M7.40501 11.6367C7.00334 11.6367 6.67773 11.9623 6.67773 12.364C6.67773 12.7657 7.00334 13.0913 7.40501 13.0913C7.80668 13.0913 8.13228 12.7657 8.13228 12.364C8.13228 11.9623 7.80668 11.6367 7.40501 11.6367Z" fill="#AEAEAE"/>
</svg>
