<svg width="50" height="50" viewBox="0 0 50 50" fill="none" xmlns="http://www.w3.org/2000/svg">
<path d="M50 25C50 38.8038 38.8114 50 25 50C11.1886 50 0 38.8038 0 25C0 11.1962 11.1962 0 25 0C38.8038 0 50 11.1886 50 25Z" fill="url(#paint0_linear_1224_85741)"/>
<path d="M21.1923 34.3999C22.0207 34.3999 22.6923 33.7283 22.6923 32.8999V28.4881C22.6923 27.6597 23.3639 26.9881 24.1923 26.9881H26.0385C26.8669 26.9881 27.5385 27.6597 27.5385 28.4881V32.8999C27.5385 33.7283 28.21 34.3999 29.0385 34.3999H32.0962C32.9246 34.3999 33.5962 33.7283 33.5962 32.8999V25.536C33.5962 24.9735 34.0521 24.5175 34.6146 24.5175C35.5432 24.5175 35.9874 23.3765 35.3032 22.7487L26.1296 14.3306C25.5559 13.8041 24.6749 13.8041 24.1012 14.3306L14.9276 22.7487C14.2434 23.3765 14.6876 24.5175 15.6162 24.5175C16.1786 24.5175 16.6346 24.9735 16.6346 25.536V32.8999C16.6346 33.7283 17.3062 34.3999 18.1346 34.3999H21.1923Z" fill="#FFC92B"/>
<defs>
<linearGradient id="paint0_linear_1224_85741" x1="8.33333" y1="44.8718" x2="48.0769" y2="-2.5641" gradientUnits="userSpaceOnUse">
<stop stop-color="#043829"/>
<stop offset="1" stop-color="#1B1B1B"/>
</linearGradient>
</defs>
</svg>
