<svg width="31" height="26" viewBox="0 0 31 26" fill="none" xmlns="http://www.w3.org/2000/svg">
    <g clip-path="url(#clip0_0_8604)">
        <path
            d="M18.0007 0.984375H6.91079C3.09775 0.984375 0 4.10008 0 7.92826V19.0622C0 22.8904 3.09775 26.0005 6.91079 26.0005H18.0007C21.8138 26.0005 24.9115 22.8904 24.9115 19.0622V7.92826C24.9115 4.10008 21.8138 0.99003 18.0007 0.99003V0.984375ZM6.91079 3.24623H18.0007C20.569 3.24623 22.6586 5.3441 22.6586 7.92261V19.0566C22.6586 21.6351 20.569 23.733 18.0007 23.733H6.91079C4.34248 23.733 2.25291 21.6351 2.25291 19.0566V7.92826C2.25291 5.34975 4.34248 3.25188 6.91079 3.25188V3.24623Z"
            fill="#FFC92B" />
        <path
            d="M11.6813 20.6893C11.5968 20.6893 11.5124 20.6893 11.4335 20.678C10.7745 20.6045 10.1831 20.2426 9.81705 19.6941L4.82686 12.2526C4.13409 11.2178 4.40444 9.80981 5.43514 9.11429C6.46585 8.41877 7.86828 8.6902 8.56105 9.72499L12.0643 14.9555L27.2039 0.61538C28.105 -0.244124 29.5356 -0.198887 30.3861 0.705854C31.2422 1.61625 31.1971 3.04687 30.296 3.90072L13.2302 20.0673C12.8078 20.4631 12.2558 20.6837 11.687 20.6837L11.6813 20.6893Z"
            fill="#006066" />
    </g>
    <defs>
        <clipPath id="clip0_0_8604">
            <rect width="31" height="26" fill="white" />
        </clipPath>
    </defs>
</svg>
