<svg width="8" height="10" viewBox="0 0 8 10" fill="none" xmlns="http://www.w3.org/2000/svg">
<path d="M6.66667 6.86145C6.32889 6.86145 6.02667 6.99699 5.79556 7.20934L2.62667 5.33434C2.64889 5.23042 2.66667 5.12651 2.66667 5.01807C2.66667 4.90964 2.64889 4.80572 2.62667 4.70181L5.76 2.84488C6 3.07078 6.31556 3.21084 6.66667 3.21084C7.40444 3.21084 8 2.60542 8 1.85542C8 1.10542 7.40444 0.5 6.66667 0.5C5.92889 0.5 5.33333 1.10542 5.33333 1.85542C5.33333 1.96386 5.35111 2.06777 5.37333 2.17169L2.24 4.02861C2 3.80271 1.68444 3.66265 1.33333 3.66265C0.595556 3.66265 0 4.26807 0 5.01807C0 5.76807 0.595556 6.37349 1.33333 6.37349C1.68444 6.37349 2 6.23343 2.24 6.00753L5.40444 7.88705C5.38222 7.98193 5.36889 8.08133 5.36889 8.18072C5.36889 8.90813 5.95111 9.5 6.66667 9.5C7.38222 9.5 7.96444 8.90813 7.96444 8.18072C7.96444 7.45331 7.38222 6.86145 6.66667 6.86145ZM6.66667 1.40361C6.91111 1.40361 7.11111 1.60693 7.11111 1.85542C7.11111 2.10392 6.91111 2.30723 6.66667 2.30723C6.42222 2.30723 6.22222 2.10392 6.22222 1.85542C6.22222 1.60693 6.42222 1.40361 6.66667 1.40361ZM1.33333 5.46988C1.08889 5.46988 0.888889 5.26657 0.888889 5.01807C0.888889 4.76958 1.08889 4.56627 1.33333 4.56627C1.57778 4.56627 1.77778 4.76958 1.77778 5.01807C1.77778 5.26657 1.57778 5.46988 1.33333 5.46988ZM6.66667 8.64157C6.42222 8.64157 6.22222 8.43825 6.22222 8.18976C6.22222 7.94127 6.42222 7.73795 6.66667 7.73795C6.91111 7.73795 7.11111 7.94127 7.11111 8.18976C7.11111 8.43825 6.91111 8.64157 6.66667 8.64157Z" fill="#FFC92B"/>
</svg>
