<svg width="190" height="60" viewBox="0 0 190 60" fill="none" xmlns="http://www.w3.org/2000/svg">
<path d="M105.67 22.32C107.415 22.32 108.83 20.9052 108.83 19.16C108.83 17.4148 107.415 16 105.67 16C103.925 16 102.51 17.4148 102.51 19.16C102.51 20.9052 103.925 22.32 105.67 22.32Z" fill="#FFC828" fill-opacity="0.5"/>
<path d="M108.83 35.6502C108.83 37.3902 107.42 38.8102 105.67 38.8102C103.92 38.8102 102.51 37.4002 102.51 35.6502C102.51 33.9002 103.92 32.4902 105.67 32.4902C107.42 32.4902 108.83 33.9002 108.83 35.6502Z" fill="#FFC828" fill-opacity="0.5"/>
<path d="M121.729 22.32C123.475 22.32 124.889 20.9052 124.889 19.16C124.889 17.4148 123.475 16 121.729 16C119.984 16 118.569 17.4148 118.569 19.16C118.569 20.9052 119.984 22.32 121.729 22.32Z" fill="#FFC828" fill-opacity="0.5"/>
<path d="M124.889 35.6502C124.889 37.3902 123.479 38.8102 121.729 38.8102C119.979 38.8102 118.569 37.4002 118.569 35.6502C118.569 33.9002 119.979 32.4902 121.729 32.4902C123.479 32.4902 124.889 33.9002 124.889 35.6502Z" fill="#FFC828" fill-opacity="0.5"/>
<path d="M73.1698 22.32C74.915 22.32 76.3298 20.9052 76.3298 19.16C76.3298 17.4148 74.915 16 73.1698 16C71.4245 16 70.0098 17.4148 70.0098 19.16C70.0098 20.9052 71.4245 22.32 73.1698 22.32Z" fill="#FFC828" fill-opacity="0.5"/>
<path d="M76.32 35.6502C76.32 37.3902 74.91 38.8102 73.16 38.8102C71.41 38.8102 70 37.4002 70 35.6502C70 33.9002 71.41 32.4902 73.16 32.4902C74.91 32.4902 76.32 33.9002 76.32 35.6502Z" fill="#FFC828" fill-opacity="0.5"/>
<path d="M89.2303 22.32C90.9755 22.32 92.3903 20.9052 92.3903 19.16C92.3903 17.4148 90.9755 16 89.2303 16C87.4851 16 86.0703 17.4148 86.0703 19.16C86.0703 20.9052 87.4851 22.32 89.2303 22.32Z" fill="#FFC828" fill-opacity="0.5"/>
<path d="M92.3796 35.6502C92.3796 37.3902 90.9696 38.8102 89.2196 38.8102C87.4696 38.8102 86.0596 37.4002 86.0596 35.6502C86.0596 33.9002 87.4696 32.4902 89.2196 32.4902C90.9696 32.4902 92.3796 33.9002 92.3796 35.6502Z" fill="#FFC828" fill-opacity="0.5"/>
<path d="M170.63 22.32C172.375 22.32 173.79 20.9052 173.79 19.16C173.79 17.4148 172.375 16 170.63 16C168.884 16 167.47 17.4148 167.47 19.16C167.47 20.9052 168.884 22.32 170.63 22.32Z" fill="#FFC828" fill-opacity="0.5"/>
<path d="M173.78 35.6502C173.78 37.3902 172.37 38.8102 170.62 38.8102C168.87 38.8102 167.46 37.4002 167.46 35.6502C167.46 33.9002 168.87 32.4902 170.62 32.4902C172.37 32.4902 173.78 33.9002 173.78 35.6502Z" fill="#FFC828" fill-opacity="0.5"/>
<path d="M189.84 19.16C189.84 20.9 188.43 22.32 186.68 22.32C184.93 22.32 183.52 20.91 183.52 19.16C183.52 17.41 184.93 16 186.68 16C188.43 16 189.84 17.41 189.84 19.16Z" fill="#FFC828" fill-opacity="0.5"/>
<path d="M189.84 35.6502C189.84 37.3902 188.43 38.8102 186.68 38.8102C184.93 38.8102 183.52 37.4002 183.52 35.6502C183.52 33.9002 184.93 32.4902 186.68 32.4902C188.43 32.4902 189.84 33.9002 189.84 35.6502Z" fill="#FFC828" fill-opacity="0.5"/>
<path d="M138.12 22.32C139.865 22.32 141.28 20.9052 141.28 19.16C141.28 17.4148 139.865 16 138.12 16C136.375 16 134.96 17.4148 134.96 19.16C134.96 20.9052 136.375 22.32 138.12 22.32Z" fill="#FFC828" fill-opacity="0.5"/>
<path d="M141.27 35.6502C141.27 37.3902 139.86 38.8102 138.11 38.8102C136.36 38.8102 134.95 37.4002 134.95 35.6502C134.95 33.9002 136.36 32.4902 138.11 32.4902C139.86 32.4902 141.27 33.9002 141.27 35.6502Z" fill="#FFC828" fill-opacity="0.5"/>
<path d="M154.181 22.32C155.926 22.32 157.341 20.9052 157.341 19.16C157.341 17.4148 155.926 16 154.181 16C152.435 16 151.021 17.4148 151.021 19.16C151.021 20.9052 152.435 22.32 154.181 22.32Z" fill="#FFC828" fill-opacity="0.5"/>
<path d="M157.33 35.6502C157.33 37.3902 155.92 38.8102 154.17 38.8102C152.42 38.8102 151.01 37.4002 151.01 35.6502C151.01 33.9002 152.42 32.4902 154.17 32.4902C155.92 32.4902 157.33 33.9002 157.33 35.6502Z" fill="#FFC828" fill-opacity="0.5"/>
<path fill-rule="evenodd" clip-rule="evenodd" d="M30 60C46.5685 60 60 46.5685 60 30C60 13.4315 46.5685 0 30 0C13.4315 0 0 13.4315 0 30C0 46.5685 13.4315 60 30 60ZM30 48.9474C40.4643 48.9474 48.9474 40.4643 48.9474 30C48.9474 19.5357 40.4643 11.0526 30 11.0526C19.5357 11.0526 11.0526 19.5357 11.0526 30C11.0526 40.4643 19.5357 48.9474 30 48.9474Z" fill="#FFC828" fill-opacity="0.5"/>
</svg>
