<svg width="8" height="12" viewBox="0 0 8 12" fill="none" xmlns="http://www.w3.org/2000/svg">
<path d="M3.9998 9.28C2.23532 9.28 0.799805 7.84448 0.799805 6.08V3.2C0.799805 1.43552 2.23532 0 3.9998 0C5.76428 0 7.1998 1.43552 7.1998 3.2V6.08C7.1998 7.84448 5.76428 9.28 3.9998 9.28ZM3.9998 1.28C2.94112 1.28 2.0798 2.14131 2.0798 3.2V6.08C2.0798 7.13869 2.94112 8 3.9998 8C5.05849 8 5.9198 7.13869 5.9198 6.08V3.2C5.9198 2.14131 5.05849 1.28 3.9998 1.28Z" fill="#9EBCBC"/>
<path d="M4 0V1.28C5.05869 1.28 5.92 2.14131 5.92 3.2V6.08C5.92 7.13869 5.05869 8 4 8V9.28C5.76448 9.28 7.2 7.84448 7.2 6.08V3.2C7.2 1.43552 5.76448 0 4 0Z" fill="#9EBCBC"/>
<path d="M4 11.8408C6.20914 11.8408 8 10.05 8 7.84082C8 5.63168 6.20914 3.84082 4 3.84082C1.79086 3.84082 0 5.63168 0 7.84082C0 10.05 1.79086 11.8408 4 11.8408Z" fill="#9EBCBC"/>
<path d="M4 3.84082V11.8408C6.20915 11.8408 8 10.05 8 7.84082C8 5.63167 6.20915 3.84082 4 3.84082Z" fill="#9EBCBC"/>
<path d="M5 7.41113C5 6.85884 4.55229 6.41113 4 6.41113C3.44771 6.41113 3 6.85884 3 7.41113C3 7.78121 3.20118 8.10409 3.5 8.27702V9.26829H4.5V8.27702C4.79882 8.10409 5 7.78121 5 7.41113Z" fill="white"/>
</svg>
