<svg width="11" height="12" viewBox="0 0 11 12" fill="none" xmlns="http://www.w3.org/2000/svg">
<path fill-rule="evenodd" clip-rule="evenodd" d="M6.08108 1.46819C6.08108 1.15002 5.80883 0.89209 5.47297 0.89209C5.13712 0.89209 4.86486 1.15002 4.86486 1.46819V6.65311C4.86486 6.9713 5.13712 7.22922 5.47297 7.22922C5.80883 7.22922 6.08108 6.9713 6.08108 6.65311V1.46819ZM3.411 3.12414C3.70466 2.96976 3.81062 2.61908 3.64767 2.34087C3.48471 2.06266 3.11455 1.96227 2.82089 2.11665C1.13992 3.00033 0 4.70021 0 6.65311C0 9.51669 2.45034 11.838 5.47297 11.838C8.49564 11.838 10.9459 9.51669 10.9459 6.65311C10.9459 4.73324 9.84418 3.05782 8.20988 2.16219C7.91921 2.00288 7.54717 2.09699 7.37903 2.3724C7.21089 2.64781 7.31019 3.00023 7.60093 3.15955C8.87485 3.8577 9.72973 5.16116 9.72973 6.65311C9.72973 8.88033 7.82392 10.6858 5.47297 10.6858C3.12203 10.6858 1.21622 8.88033 1.21622 6.65311C1.21622 5.13555 2.10078 3.81291 3.411 3.12414Z" fill="#006066"/>
</svg>
