<svg width="18" height="19" viewBox="0 0 18 19" fill="none" xmlns="http://www.w3.org/2000/svg">
<path d="M4.97082 2.35784L3.69005 1.1077C1.54051 2.70753 0.12539 5.17284 0 7.97035H1.79129C1.92563 5.65366 3.14371 3.62546 4.97082 2.35784ZM16.0679 7.97035H17.8591C17.7248 5.17284 16.3097 2.70753 14.1691 1.1077L12.8973 2.35784C14.7065 3.62546 15.9335 5.65366 16.0679 7.97035ZM14.3034 8.40746C14.3034 5.7236 12.8346 3.47684 10.273 2.88237V2.2879C10.273 1.56229 9.67296 0.976562 8.92957 0.976562C8.18619 0.976562 7.5861 1.56229 7.5861 2.2879V2.88237C5.01561 3.47684 3.55571 5.71486 3.55571 8.40746V12.7786L1.76442 14.527V15.4013H16.0947V14.527L14.3034 12.7786V8.40746ZM8.92957 18.0239C9.05496 18.0239 9.17139 18.0152 9.28783 17.989C9.87 17.8666 10.3447 17.4819 10.5776 16.9574C10.6671 16.7476 10.7119 16.5203 10.7119 16.2755H7.12933C7.13828 17.2371 7.93541 18.0239 8.92957 18.0239Z" fill="#FFC92B"/>
</svg>
