<svg width="16" height="16" viewBox="0 0 16 16" fill="none" xmlns="http://www.w3.org/2000/svg">
<path d="M15.9402 7.6856C15.7787 7.2952 15.4326 7.2016 15.1983 7.1792V4.8C15.1983 3.9176 14.4812 3.2 13.5993 3.2H8.80238V2.088C9.04623 1.8688 9.20213 1.5536 9.20213 1.2C9.20213 0.88174 9.07578 0.576516 8.85088 0.351472C8.62598 0.126428 8.32095 0 8.00289 0C7.68484 0 7.37981 0.126428 7.15491 0.351472C6.93001 0.576516 6.80366 0.88174 6.80366 1.2C6.80366 1.5536 6.95956 1.8688 7.2034 2.088V3.2H2.40646C1.52463 3.2 0.807485 3.9176 0.807485 4.8V7.1976L0.741927 7.2024C0.540433 7.21695 0.351917 7.3073 0.214277 7.45527C0.076638 7.60323 8.1744e-05 7.79785 0 8V9.6C0 9.81217 0.0842317 10.0157 0.234165 10.1657C0.384099 10.3157 0.587452 10.4 0.79949 10.4H0.807485V14.4C0.807485 15.2824 1.52463 16 2.40646 16H13.5993C14.4812 16 15.1983 15.2824 15.1983 14.4V10.4C15.4103 10.4 15.6137 10.3157 15.7636 10.1657C15.9136 10.0157 15.9978 9.81217 15.9978 9.6V8.0496C16.007 7.92545 15.9873 7.80085 15.9402 7.6856ZM2.40646 14.4V4.8H13.5993L13.6001 7.9968L13.5993 8V9.6L13.6001 9.604L13.6009 14.4H2.40646Z" fill="white"/>
<path d="M5.20607 9.60015C5.86839 9.60015 6.40531 8.8838 6.40531 8.00015C6.40531 7.11649 5.86839 6.40015 5.20607 6.40015C4.54375 6.40015 4.00684 7.11649 4.00684 8.00015C4.00684 8.8838 4.54375 9.60015 5.20607 9.60015Z" fill="white"/>
<path d="M10.8008 9.60015C11.4631 9.60015 12 8.8838 12 8.00015C12 7.11649 11.4631 6.40015 10.8008 6.40015C10.1385 6.40015 9.60156 7.11649 9.60156 8.00015C9.60156 8.8838 10.1385 9.60015 10.8008 9.60015Z" fill="white"/>
<path d="M4.80469 11.1995H11.2006V12.7995H4.80469V11.1995Z" fill="white"/>
</svg>
