<svg width="46" height="43" viewBox="0 0 46 43" fill="none" xmlns="http://www.w3.org/2000/svg">
<path d="M3.28571 16.4284H42.7143V13.1427C42.7143 12.2713 42.3681 11.4356 41.7519 10.8194C41.1357 10.2032 40.3 9.857 39.4286 9.857H6.57143C5.7 9.857 4.86427 10.2032 4.24808 10.8194C3.63189 11.4356 3.28571 12.2713 3.28571 13.1427V16.4284ZM3.28571 19.7141V36.1427C3.28571 37.0141 3.63189 37.8499 4.24808 38.4661C4.86427 39.0823 5.7 39.4284 6.57143 39.4284H39.4286C40.3 39.4284 41.1357 39.0823 41.7519 38.4661C42.3681 37.8499 42.7143 37.0141 42.7143 36.1427V19.7141H3.28571ZM6.57143 6.57129H39.4286C41.1714 6.57129 42.8429 7.26363 44.0753 8.49602C45.3077 9.7284 46 11.3999 46 13.1427V36.1427C46 37.8856 45.3077 39.557 44.0753 40.7894C42.8429 42.0218 41.1714 42.7141 39.4286 42.7141H6.57143C4.82858 42.7141 3.15711 42.0218 1.92473 40.7894C0.692345 39.557 0 37.8856 0 36.1427V13.1427C0 11.3999 0.692345 9.7284 1.92473 8.49602C3.15711 7.26363 4.82858 6.57129 6.57143 6.57129Z" fill="black"/>
<path d="M16.4283 3.28571V6.57143H29.5711V3.28571H16.4283ZM16.4283 0H29.5711C30.4426 0 31.2783 0.346172 31.8945 0.962363C32.5107 1.57855 32.8569 2.41429 32.8569 3.28571V6.57143C32.8569 7.44285 32.5107 8.27859 31.8945 8.89478C31.2783 9.51097 30.4426 9.85714 29.5711 9.85714H16.4283C15.5569 9.85714 14.7211 9.51097 14.1049 8.89478C13.4888 8.27859 13.1426 7.44285 13.1426 6.57143V3.28571C13.1426 2.41429 13.4888 1.57855 14.1049 0.962363C14.7211 0.346172 15.5569 0 16.4283 0Z" fill="black"/>
<path d="M23.5 36C29.299 36 34 31.299 34 25.5C34 19.701 29.299 15 23.5 15C17.701 15 13 19.701 13 25.5C13 31.299 17.701 36 23.5 36Z" fill="#006066" stroke="black" stroke-width="2.1"/>
<path d="M18.5586 26.5052L21.9298 29.8761L29.4563 22.3496" stroke="white" stroke-width="2.625" stroke-linecap="round" stroke-linejoin="round"/>
</svg>
