<svg width="223" height="342" viewBox="0 0 223 342" fill="none" xmlns="http://www.w3.org/2000/svg">
<g filter="url(#filter0_d_605_58558)">
<path d="M125.707 248.43H89.0175C89.0175 248.43 76.9875 261.03 78.6475 279.58C78.6475 279.58 82.0475 275.73 84.7475 273.73C85.2375 273.37 85.9175 273.78 85.8275 274.39C85.1775 278.58 85.7375 291.15 107.367 312.5C128.997 291.14 129.557 278.58 128.907 274.39C128.817 273.79 129.487 273.37 129.977 273.73C132.677 275.73 136.077 279.58 136.077 279.58C137.737 261.03 125.707 248.43 125.707 248.43Z" fill="url(#paint0_linear_605_58558)"/>
<path d="M107.257 234.13C107.257 234.13 83.7674 252.79 107.257 284.9C130.747 252.77 107.257 234.13 107.257 234.13Z" fill="#FFE697"/>
<path d="M107.258 246.05C107.258 246.05 93.2176 257.2 107.258 276.39C121.298 257.19 107.258 246.05 107.258 246.05Z" fill="white"/>
<path d="M80.8975 240.01L83.5675 245.16C84.7075 247.35 86.9675 248.73 89.4375 248.73H124.827C127.297 248.73 129.557 247.35 130.697 245.16L133.367 240.01H80.9075H80.8975Z" fill="#949494" stroke="#424242" stroke-width="2" stroke-miterlimit="10"/>
<path d="M73.3379 230.25L76.7779 236.88C78.2379 239.7 81.1579 241.47 84.3379 241.47H129.928C133.108 241.47 136.018 239.7 137.488 236.88L140.928 230.25H73.3379Z" fill="#4D4D4D" stroke="#424242" stroke-width="2" stroke-miterlimit="10"/>
<path d="M139.718 179.47C139.718 179.47 197.228 199.22 193.568 257.02C193.568 257.02 145.148 207.69 118.798 218.25L139.718 179.48V179.47Z" fill="#006066"/>
<path d="M75.0176 179.47C75.0176 179.47 17.5076 199.23 21.1676 257.02C21.1676 257.02 69.5876 207.69 95.9376 218.25L75.0176 179.48V179.47Z" fill="#006066"/>
<path d="M135.057 68.99C128.407 52.28 119.337 35.97 107.117 21V21.07L107.097 21C95.0072 35.82 86.0072 51.94 79.3672 68.47C92.2972 65.38 111.817 63.29 135.047 68.99H135.057Z" fill="#006066"/>
<path d="M135.818 70.95L135.048 68.99C104.288 61.1 79.3676 68.47 79.3676 68.47L78.3876 70.95C52.9676 136.78 64.4876 208.24 68.5776 228.41C69.2376 231.66 72.0976 233.99 75.4176 233.99H138.768C142.088 233.99 144.948 231.66 145.608 228.41C149.698 208.24 161.228 136.78 135.798 70.95H135.818Z" fill="#FFC92B"/>
<path d="M105.967 145.78C118.995 145.78 129.557 135.218 129.557 122.19C129.557 109.162 118.995 98.6001 105.967 98.6001C92.9386 98.6001 82.377 109.162 82.377 122.19C82.377 135.218 92.9386 145.78 105.967 145.78Z" fill="#043146" stroke="#424242" stroke-width="2" stroke-miterlimit="10"/>
<path d="M113.938 139.996C123.165 136.223 127.587 125.685 123.813 116.457C120.04 107.23 109.502 102.809 100.275 106.582C91.0475 110.355 86.626 120.894 90.3991 130.121C94.1721 139.348 104.711 143.769 113.938 139.996Z" fill="#7C7C7C" stroke="#424242" stroke-width="2" stroke-miterlimit="10"/>
<path d="M105.967 140.07C115.842 140.07 123.847 132.065 123.847 122.19C123.847 112.315 115.842 104.31 105.967 104.31C96.0921 104.31 88.0869 112.315 88.0869 122.19C88.0869 132.065 96.0921 140.07 105.967 140.07Z" fill="#3EC2E5" stroke="#424242" stroke-width="2" stroke-miterlimit="10"/>
<g opacity="0.08">
<path d="M107.107 107.33C114.187 107.33 120.287 111.46 123.187 117.43C121.097 109.87 114.197 104.31 105.967 104.31C96.0969 104.31 88.0869 112.31 88.0869 122.19C88.0869 124.98 88.7469 127.62 89.8869 129.97C89.4669 128.45 89.2269 126.86 89.2269 125.21C89.2269 115.34 97.2269 107.33 107.107 107.33Z" fill="black" stroke="#424242" stroke-width="2" stroke-miterlimit="10"/>
</g>
<path d="M107.367 186.67C88.0972 230.53 107.367 268.45 107.367 268.45C107.367 268.45 126.637 230.53 107.367 186.67Z" fill="#006066"/>
</g>
<defs>
<filter id="filter0_d_605_58558" x="0" y="0" width="222.735" height="341.5" filterUnits="userSpaceOnUse" color-interpolation-filters="sRGB">
<feFlood flood-opacity="0" result="BackgroundImageFix"/>
<feColorMatrix in="SourceAlpha" type="matrix" values="0 0 0 0 0 0 0 0 0 0 0 0 0 0 0 0 0 0 127 0" result="hardAlpha"/>
<feOffset dx="4" dy="4"/>
<feGaussianBlur stdDeviation="12.5"/>
<feComposite in2="hardAlpha" operator="out"/>
<feColorMatrix type="matrix" values="0 0 0 0 0 0 0 0 0 0 0 0 0 0 0 0 0 0 0.25 0"/>
<feBlend mode="normal" in2="BackgroundImageFix" result="effect1_dropShadow_605_58558"/>
<feBlend mode="normal" in="SourceGraphic" in2="effect1_dropShadow_605_58558" result="shape"/>
</filter>
<linearGradient id="paint0_linear_605_58558" x1="107.367" y1="248.43" x2="107.367" y2="312.51" gradientUnits="userSpaceOnUse">
<stop stop-color="#F7BD6F"/>
<stop offset="0.45" stop-color="#F29857"/>
<stop offset="1" stop-color="#ED6637"/>
</linearGradient>
</defs>
</svg>
