<svg width="48" height="52" viewBox="0 0 48 52" fill="none" xmlns="http://www.w3.org/2000/svg">
<path d="M7.71397 15.5435C7.85134 15.4122 8.00548 15.292 8.17488 15.1853L8.34847 15.1511C8.43941 15.1137 8.51186 15.0524 8.55915 14.9782C8.83045 14.8573 9.11444 14.7793 9.40336 14.7403C9.65284 14.7076 9.82805 14.4887 9.79182 14.2513C9.75818 14.0141 9.52482 13.8485 9.27534 13.8811C8.98964 13.921 8.70329 13.9895 8.42855 14.0914C8.38395 13.9019 8.35868 13.7084 8.35868 13.5134C8.35954 13.0866 8.46564 12.6559 8.69147 12.2507C8.94933 11.7873 9.32758 11.4259 9.77 11.1792C10.1576 10.9626 10.5957 10.8337 11.0457 10.8034C11.0785 11.1911 11.1762 11.5772 11.3464 11.9514C11.4476 12.171 11.7163 12.2722 11.9496 12.1774C12.1823 12.0835 12.2901 11.8288 12.1898 11.609C12.0264 11.2484 11.9496 10.8774 11.9479 10.5096L11.9538 10.3528C11.985 9.84321 12.1637 9.35124 12.4678 8.93169C12.772 8.51284 13.1983 8.16976 13.7291 7.95242C14.1099 7.79875 14.5043 7.72634 14.8928 7.72634C15.6368 7.72634 16.3572 7.99711 16.9014 8.47465C16.7995 8.80189 16.7414 9.14659 16.7414 9.50491C16.7414 9.74378 16.9486 9.93797 17.2014 9.93797C17.4542 9.93797 17.6606 9.74378 17.6606 9.50491C17.6606 9.1538 17.7289 8.82098 17.8535 8.51132H17.8527C18.0642 7.98989 18.4383 7.54089 18.9177 7.22401C19.3955 6.90723 19.9743 6.72168 20.6045 6.72168C21.1513 6.72168 21.6611 6.86265 22.0992 7.1062C22.4497 7.30201 22.7522 7.56638 22.9898 7.87686C22.5255 8.4779 22.2509 9.22073 22.2509 10.0217C22.2509 10.2604 22.4573 10.4539 22.7109 10.4539C22.9637 10.4539 23.1701 10.2604 23.1701 10.0217C23.1701 9.31793 23.444 8.67778 23.8997 8.18815C24.4406 7.60457 25.2301 7.23924 26.1149 7.23924C26.729 7.23924 27.2944 7.41515 27.7672 7.71771C28.2382 8.02026 28.6131 8.44855 28.8347 8.95169C28.9779 9.28045 29.0597 9.64273 29.0597 10.0217C29.0597 10.2604 29.2645 10.4539 29.518 10.4539C29.7717 10.4539 29.9764 10.2604 29.9764 10.0217C29.9764 9.66974 29.9224 9.33062 29.8247 9.00735C30.1702 8.87522 30.5442 8.80199 30.9284 8.80199C31.1466 8.80199 31.3657 8.82586 31.5882 8.87288C32.242 9.01537 32.7888 9.34819 33.1891 9.79873C33.4773 10.1236 33.6829 10.5097 33.7898 10.9245C32.8419 10.9403 31.8949 11.2866 31.1635 11.9633C30.9831 12.1313 30.9798 12.4052 31.1567 12.5756C31.3345 12.7475 31.6244 12.7491 31.8055 12.5827C32.3801 12.0533 33.1207 11.7881 33.8656 11.7873C33.9987 11.7873 34.1319 11.7961 34.265 11.812H34.2667H34.2675C34.8918 11.894 35.4934 12.163 35.9712 12.6233C36.5324 13.1646 36.8105 13.8637 36.8112 14.569C36.8112 14.9711 36.7186 15.3763 36.5333 15.7489C36.3892 16.0426 36.1869 16.3165 35.9257 16.5569V16.5576C35.6308 16.8315 35.2904 17.0338 34.9272 17.1659C34.6922 17.2527 34.5733 17.5035 34.666 17.7263C34.7578 17.9509 35.0224 18.0624 35.2591 17.9747C35.7334 17.8012 36.1817 17.5354 36.5694 17.1762C36.7387 17.0186 36.8896 16.8506 37.0234 16.6724C37.3697 17.1413 37.5576 17.7024 37.5576 18.2741C37.5576 18.7169 37.4455 19.1634 37.2088 19.583C36.9426 20.0527 36.5574 20.4189 36.1042 20.6689C35.7461 20.8671 35.3458 20.9922 34.933 21.0359L34.9338 21.0096C34.9338 20.7803 34.911 20.5559 34.8698 20.3377C34.8226 20.1021 34.5825 19.9483 34.3347 19.9906C34.0853 20.0343 33.921 20.2604 33.9657 20.496C33.9986 20.6624 34.0162 20.8351 34.0162 21.0095L34.0087 21.211L33.9843 21.4141V21.4164L33.9834 21.4204C33.7727 22.7802 32.5291 23.7967 31.0732 23.7967L30.8616 23.7888H30.8608C30.2154 23.745 29.6357 23.5093 29.1757 23.1424C28.853 22.8852 28.5885 22.5628 28.4073 22.1996C28.3003 21.9823 28.0248 21.8901 27.7964 21.9927C27.5672 22.0946 27.4694 22.3525 27.5773 22.5691C27.7736 22.96 28.0416 23.3127 28.3634 23.6128C28.1831 24.1367 27.8445 24.5865 27.402 24.9208C26.8964 25.3038 26.2587 25.5299 25.5695 25.5299L25.3571 25.522H25.3562C24.9198 25.4925 24.5162 25.3739 24.158 25.1891C24.2137 24.94 24.2456 24.6853 24.2456 24.4273C24.2456 23.8954 24.1201 23.3533 23.8606 22.8438C23.7502 22.628 23.4765 22.5381 23.2489 22.6424C23.0206 22.745 22.9236 23.0046 23.034 23.2204C23.2337 23.6113 23.3273 24.0221 23.3273 24.4273C23.3273 24.7107 23.2809 24.9933 23.1916 25.2616H23.1908C22.9557 25.9694 22.4248 26.588 21.6607 26.935C21.2478 27.1237 20.813 27.2121 20.385 27.2121C19.705 27.2121 19.0402 26.9875 18.5128 26.5808L18.511 26.58C18.1908 26.3307 17.9229 26.0155 17.73 25.6389L17.7292 25.6372C17.5497 25.2854 17.4553 24.9169 17.4394 24.549C17.4276 24.3101 17.2144 24.1239 16.96 24.135C16.7072 24.1454 16.5118 24.3475 16.5227 24.5864C16.5447 25.0688 16.6685 25.556 16.9036 26.0154V26.0145C17.0923 26.3864 17.3408 26.7136 17.6323 26.993C17.0914 27.727 16.1916 28.1896 15.2184 28.1888C15.0381 28.1888 14.8544 28.173 14.6698 28.1394C13.9613 28.0137 13.3639 27.6594 12.9392 27.1722C12.5154 26.6841 12.2685 26.0639 12.2685 25.4094L12.2693 25.3506V25.3474C12.2726 25.2001 12.2887 25.0457 12.319 24.8903C12.3923 24.5218 12.5415 24.1873 12.7461 23.892C13.0427 23.6452 13.3721 23.3228 13.683 22.9645C14.0142 22.5824 14.3191 22.1644 14.5239 21.7433C14.6587 21.4615 14.7548 21.1765 14.7565 20.8764C14.7565 20.7434 14.7371 20.6057 14.684 20.4736C14.6327 20.339 14.5484 20.2117 14.4355 20.1065C14.2569 19.9386 13.9671 19.9386 13.7876 20.1065C13.6089 20.2769 13.6089 20.5523 13.7876 20.7204L13.8222 20.7722L13.8398 20.8765C13.8415 20.9856 13.7935 21.1703 13.6899 21.3828C13.5871 21.5946 13.4346 21.8326 13.2551 22.0674C12.8995 22.538 12.4386 22.9998 12.0915 23.2815L12.0443 23.3198L12.0097 23.3683C11.7257 23.768 11.5177 24.2282 11.4175 24.7305V24.7313L11.3846 24.9462L11.2472 24.9518C10.6658 24.951 10.0803 24.7886 9.56545 24.447C9.15593 24.1747 8.84421 23.8253 8.63353 23.4327C8.4221 23.0395 8.31171 22.6048 8.31171 22.1669C8.31171 21.7569 8.40953 21.3453 8.60494 20.9624C8.78617 21.0174 8.96986 21.0611 9.15603 21.0914C9.4054 21.1335 9.6422 20.9735 9.68681 20.738C9.72905 20.5015 9.5604 20.2786 9.31103 20.2372C8.49885 20.105 7.75482 19.6576 7.29477 18.9395C7.00326 18.4881 6.86589 17.9913 6.86589 17.5001C6.86589 16.7764 7.1617 16.0687 7.71268 15.544L7.71397 15.5435ZM28.7335 12.2364C28.2954 11.7468 27.714 11.3988 27.0888 11.1711C26.4611 10.9434 25.7887 10.8344 25.1433 10.8344C24.5155 10.8352 23.9123 10.9355 23.4 11.1601C23.1709 11.2587 23.0706 11.5175 23.1768 11.7348C23.2821 11.9515 23.5543 12.0469 23.7859 11.9467C24.1398 11.7899 24.6243 11.6999 25.1433 11.6999C25.6775 11.6999 26.247 11.7929 26.7585 11.9809C27.2699 12.1664 27.719 12.4434 28.035 12.7953C28.1968 12.9785 28.4874 13.0023 28.6812 12.8463C28.8742 12.6918 28.8986 12.4187 28.7335 12.2364ZM18.2924 22.4856C18.8258 22.4856 19.3095 22.4284 19.7509 22.3321C19.7391 22.4514 19.7307 22.5844 19.7307 22.7253C19.7307 23.008 19.7636 23.3311 19.8571 23.6703C19.9515 24.0086 20.1107 24.3645 20.3618 24.706C20.5058 24.9035 20.7915 24.952 20.9996 24.8158C21.2086 24.6796 21.2591 24.4106 21.1168 24.2123C20.9315 23.9599 20.816 23.702 20.7452 23.4481C20.6744 23.1942 20.6482 22.9473 20.6482 22.7252C20.6474 22.4187 20.6971 22.1663 20.7325 22.0222C20.9566 21.9266 21.1631 21.8192 21.3559 21.6989C22.1244 21.2292 22.6383 20.6091 22.9611 20.0191C23.1775 19.6234 23.3091 19.2413 23.3798 18.9093C23.4202 18.7198 23.4404 18.548 23.4404 18.3918C23.4404 18.1514 23.2348 17.9571 22.9813 17.9571C22.7277 17.9571 22.5221 18.1514 22.5221 18.3918C22.5229 18.5175 22.4942 18.7285 22.4218 18.9682C22.3493 19.2086 22.2339 19.4817 22.0671 19.7564C21.7326 20.3089 21.2009 20.8622 20.3803 21.2213C19.8318 21.4617 19.1493 21.6177 18.2924 21.6177C18.0389 21.6177 17.8332 21.812 17.8332 22.0516C17.8332 22.2915 18.0387 22.4856 18.2924 22.4856ZM15.062 19.3202C15.1563 19.5416 15.4235 19.6499 15.6594 19.5615C15.8945 19.4723 16.0073 19.2215 15.9147 18.9994V18.9986L15.9121 18.9922L15.8985 18.954L15.8514 18.798C15.8167 18.6611 15.7814 18.4676 15.7814 18.255L15.7822 18.2248C16.4124 18.427 16.9972 18.5177 17.5356 18.5177C18.3495 18.5193 19.0539 18.3084 19.6269 17.9883C20.2006 17.6684 20.6472 17.2448 20.9809 16.8141C21.36 16.3261 21.8572 15.8882 22.4267 15.5786C22.9979 15.268 23.6366 15.0833 24.3149 15.0817C24.9088 15.0833 25.5408 15.2234 26.2005 15.5658C26.8265 15.8906 27.2293 16.3228 27.4896 16.7973C27.7483 17.2726 27.8578 17.7916 27.857 18.2646C27.8587 18.7024 27.7609 19.0988 27.6338 19.3489C27.5251 19.5654 27.6237 19.8234 27.852 19.9261C28.0803 20.0288 28.3542 19.9356 28.4628 19.7199C28.6625 19.3201 28.7737 18.817 28.7754 18.2646C28.7745 17.7152 28.6591 17.1149 28.3751 16.541C28.9446 16.6628 29.4738 16.717 29.9557 16.717C30.2161 16.717 30.4614 16.701 30.6947 16.6724L30.7798 16.8348L30.7807 16.8363L30.7875 16.8428L30.8119 16.8723L30.9097 16.998C30.9931 17.1111 31.1085 17.2759 31.2341 17.486C31.4843 17.9024 31.7708 18.49 31.9099 19.1498C31.9595 19.3847 32.2005 19.5384 32.4491 19.4906C32.6976 19.4436 32.8595 19.2159 32.808 18.9795C32.6429 18.1969 32.3167 17.5313 32.0328 17.0576C31.8846 16.8125 31.7489 16.6183 31.6495 16.486C32.0236 16.3802 32.3471 16.2504 32.6117 16.1182C33.2157 15.8148 33.5301 15.5107 33.557 15.486C33.7323 15.3133 33.7273 15.0394 33.5453 14.873C33.3625 14.7075 33.0734 14.7122 32.8974 14.8826L32.8922 14.8873L32.8653 14.912L32.7339 15.0162C32.6143 15.1054 32.4297 15.2281 32.1829 15.3522C31.6875 15.599 30.9476 15.849 29.956 15.8507C29.2592 15.8507 28.4377 15.7249 27.4831 15.3778C27.2412 15.1652 26.9624 14.971 26.6422 14.8054C25.8569 14.3986 25.0658 14.2155 24.3151 14.2155C23.4573 14.2155 22.6594 14.4512 21.9685 14.8269C21.2776 15.2043 20.692 15.721 20.2413 16.3021C19.9674 16.6531 19.6076 16.9931 19.1619 17.2406C18.7137 17.4891 18.1837 17.6508 17.5358 17.6515C17.0918 17.6515 16.5913 17.5735 16.0251 17.3856C16.1632 17.1761 16.3688 16.9739 16.7075 16.7908C16.9283 16.6722 17.0066 16.4079 16.882 16.2001C16.7564 15.9907 16.4775 15.919 16.2568 16.0353C15.7142 16.3243 15.351 16.7072 15.1404 17.1077C14.9273 17.5065 14.8641 17.911 14.8641 18.2549C14.8666 18.8554 15.0494 19.2893 15.062 19.3202ZM15.2338 14.0094C16.3056 14.0094 17.2433 13.7363 18.0017 13.3232C18.1086 13.4633 18.2519 13.6392 18.4364 13.8303C18.8518 14.261 19.4619 14.7666 20.2783 15.0435C20.5184 15.1232 20.7796 15.007 20.8647 14.7809C20.9498 14.5547 20.8243 14.3072 20.5875 14.2276C19.985 14.0246 19.4812 13.6257 19.1323 13.2651C18.9706 13.1002 18.845 12.9442 18.754 12.8248C19.2065 12.4634 19.5637 12.0518 19.8089 11.6283C20.0414 11.2222 20.1763 10.8035 20.1779 10.3966C20.1779 10.1579 19.9722 9.96356 19.7187 9.96356C19.4659 9.96356 19.2603 10.1579 19.2603 10.3966C19.2621 10.6156 19.1811 10.9078 19.0026 11.2143C18.8265 11.5215 18.5586 11.8416 18.208 12.1283C17.507 12.7023 16.4951 13.1417 15.2337 13.1417C14.9802 13.1417 14.7754 13.3368 14.7754 13.5764C14.7755 13.8151 14.9803 14.0094 15.2338 14.0094ZM11.6176 20.1132C11.7785 20.2964 12.0684 20.3234 12.2638 20.1697C12.4593 20.0177 12.4862 19.7439 12.3262 19.5599C11.8257 18.9859 11.6412 18.4079 11.6395 17.8547C11.6378 17.3507 11.8013 16.8642 12.0575 16.4543C12.3103 16.045 12.6598 15.7171 12.996 15.5348C13.2219 15.4122 13.4342 15.3573 13.6027 15.3573C13.8564 15.3573 14.061 15.1639 14.061 14.9242C14.061 14.6846 13.8563 14.4903 13.6027 14.4903C13.3239 14.4903 13.0509 14.5548 12.7913 14.6631C12.5327 14.7698 12.2882 14.9219 12.0608 15.1074C11.6067 15.4783 11.2208 15.9831 10.9781 16.5747C10.818 16.9695 10.7203 17.4026 10.7203 17.8548C10.7194 18.5982 10.9882 19.3943 11.6176 20.1132Z" fill="#CFCFCF"/>
<path d="M20.9155 0.920503L20.9164 0.92045C21.4352 0.89032 21.9507 0.875 22.4607 0.875C27.8198 0.875 32.7014 2.51935 36.252 5.48494L36.2531 5.48584C39.7917 8.43171 41.9956 12.7378 41.9876 17.9209L41.9876 17.9223C41.9876 18.0417 41.9868 18.1591 41.9844 18.2759L41.9842 18.2884L41.9843 18.301L41.9901 18.9585L41.9922 19.1965L42.1145 19.4006L46.8625 27.3232C46.8626 27.3233 46.8628 27.3235 46.8629 27.3237C47.0371 27.6157 47.123 27.9375 47.123 28.2559C47.123 28.5223 47.0633 28.7912 46.9406 29.0437L46.9403 29.0443C46.6828 29.5752 46.1616 29.9833 45.5097 30.1262L44.6364 30.3177L44.6461 30.3579L43.2944 30.7097L42.7108 30.8616L42.645 31.461L41.8786 38.4462L41.821 38.4393L41.7715 39.3726C41.7239 40.2697 41.301 41.1179 40.5696 41.7188L40.5691 41.7192C39.9142 42.2582 39.0701 42.5564 38.1947 42.5564C38.1417 42.5564 38.0944 42.5531 38.0171 42.5477C37.9914 42.5459 37.9623 42.5439 37.9287 42.5416L37.8672 42.5376L37.8058 42.5422L35.4085 42.7218L35.3618 42.7171L35.3352 42.7143L35.3085 42.7132L35.2689 42.7116L35.251 42.7109H35.2331C34.9413 42.7109 34.6488 42.8097 34.414 43.0095L34.3882 43.0315L34.3768 43.0429C34.1301 43.2687 33.9773 43.5936 33.9773 43.945V51.1252H12.6216V50.7773V46.145C12.6242 45.5313 12.5011 44.4154 12.2713 43.3596M20.9155 0.920503L5.55022 33.5698C6.45688 34.807 7.40341 35.8757 8.33508 36.9275C8.39663 36.997 8.45811 37.0664 8.51951 37.1358C9.49922 38.2429 10.4659 39.3505 11.2729 40.5788C11.4778 40.8843 11.6813 41.3336 11.8443 41.8041M20.9155 0.920503C14.546 1.28369 9.63497 3.76285 6.38944 7.34862L6.3887 7.34943M20.9155 0.920503L6.3887 7.34943M12.2713 43.3596C12.1566 42.8272 12.0124 42.2847 11.8443 41.8041M12.2713 43.3596C12.2713 43.3595 12.2713 43.3594 12.2713 43.3594L11.4163 43.5455L12.2717 43.3612C12.2716 43.3607 12.2715 43.3602 12.2713 43.3596ZM11.8443 41.8041C11.8441 41.8034 11.8438 41.8027 11.8436 41.802L11.0177 42.0911L11.8445 41.8047C11.8445 41.8045 11.8444 41.8043 11.8443 41.8041ZM6.3887 7.34943C3.12967 10.941 1.48455 15.6412 1.48455 20.5084C1.48455 21.1488 1.51296 21.7927 1.56974 22.4369L1.56983 22.438M6.3887 7.34943L1.56983 22.438M1.56983 22.438C2.0192 27.6072 3.65004 30.9761 5.55014 33.5697L1.56983 22.438ZM11.7466 51.1252V52.0002H12.6216L11.7466 51.1252Z" stroke="black" stroke-width="1.75"/>
<path d="M21.9992 15.3325C25.6812 15.3325 28.666 18.3174 28.666 21.9994C28.666 23.8145 27.9406 25.4601 26.7639 26.6624C26.3056 27.1307 25.9289 27.6879 25.8003 28.3305L25.0948 31.8562C24.8454 33.1026 23.7509 33.9997 22.4798 33.9997H21.5185C20.2474 33.9997 19.1529 33.1026 18.9035 31.8562L18.198 28.3305C18.0695 27.6879 17.6928 27.1307 17.2344 26.6624C16.0577 25.4601 15.3323 23.8145 15.3323 21.9994C15.3323 18.3174 18.3172 15.3325 21.9992 15.3325Z" fill="#FFB900" stroke="black" stroke-width="2.23666"/>
<path d="M22.001 11.3334V10V11.3334Z" fill="#FDD05A"/>
<path d="M22.001 11.3334V10" stroke="black" stroke-width="2.23666" stroke-linecap="round" stroke-linejoin="round"/>
<path d="M14.001 14.0004L12.6676 12.667L14.001 14.0004Z" fill="#FDD05A"/>
<path d="M14.001 14.0004L12.6676 12.667" stroke="black" stroke-width="2.23666" stroke-linecap="round" stroke-linejoin="round"/>
<path d="M11.334 22.001H10.0006H11.334Z" fill="#FDD05A"/>
<path d="M11.334 22.001H10.0006" stroke="black" stroke-width="2.23666" stroke-linecap="round" stroke-linejoin="round"/>
<path d="M32.6666 22.001H34H32.6666Z" fill="white"/>
<path d="M32.6666 22.001H34" stroke="black" stroke-width="2.23666" stroke-linecap="round" stroke-linejoin="round"/>
<path d="M31.334 12.667L30.0006 14.0004L31.334 12.667Z" fill="#FDD05A"/>
<path d="M31.334 12.667L30.0006 14.0004" stroke="black" stroke-width="2.23666" stroke-linecap="round" stroke-linejoin="round"/>
<path d="M24.667 28.6675H19.3335H24.667Z" fill="white"/>
<path d="M24.667 28.6675H19.3335" stroke="black" stroke-width="2.23666" stroke-linecap="round" stroke-linejoin="round"/>
</svg>
