<svg width="30" height="35" viewBox="0 0 30 35" fill="none" xmlns="http://www.w3.org/2000/svg">
<path fill-rule="evenodd" clip-rule="evenodd" d="M22.5148 6.97466H7.77187C7.18952 6.97466 6.7188 7.44644 6.7188 8.02773C6.7188 8.61008 7.18952 9.0808 7.77187 9.0808H22.5148C23.0972 9.0808 23.5679 8.61008 23.5679 8.02773C23.5679 7.44644 23.0972 6.97466 22.5148 6.97466ZM22.5148 13.2699H7.77187C7.18952 13.2699 6.7188 13.7407 6.7188 14.323C6.7188 14.9032 7.18952 15.3761 7.77187 15.3761H22.5148C23.0972 15.3761 23.5679 14.9032 23.5679 14.323C23.5679 13.7407 23.0972 13.2699 22.5148 13.2699ZM22.5148 19.6115H7.77187C7.18952 19.6115 6.7188 20.0822 6.7188 20.6646C6.7188 21.2469 7.18952 21.7176 7.77187 21.7176H22.5148C23.0972 21.7176 23.5679 21.2469 23.5679 20.6646C23.5679 20.0822 23.0972 19.6115 22.5148 19.6115ZM27.7802 32.2767L23.5679 29.0891L19.3556 32.4463L15.1434 29.0891L10.9311 32.4463L6.7188 29.0891L2.50653 32.3105V4.86852C2.50653 3.70594 3.45008 2.76239 4.61267 2.76239H25.674C26.8366 2.76239 27.7802 3.70594 27.7802 4.86852V32.2767ZM25.674 0.65625H4.61267C2.28644 0.65625 0.400391 2.5423 0.400391 4.86852V34.3544H2.36647L6.7188 31.1952L10.9311 34.3544L15.1434 31.1952L19.3556 34.3544L23.5679 31.1952L27.9213 34.3544H29.8863V4.86852C29.8863 2.5423 28.0003 0.65625 25.674 0.65625Z" fill="#006066"/>
</svg>
