<svg width="10" height="10" viewBox="0 0 10 10" fill="none" xmlns="http://www.w3.org/2000/svg">
<path d="M9 0H3C2.45 0 2 0.45 2 1V7C2 7.55 2.45 8 3 8H9C9.55 8 10 7.55 10 7V1C10 0.45 9.55 0 9 0ZM4.75 3.75C4.75 4.165 4.415 4.5 4 4.5H3.5V5.5H2.75V2.5H4C4.415 2.5 4.75 2.835 4.75 3.25V3.75ZM7.25 4.75C7.25 5.165 6.915 5.5 6.5 5.5H5.25V2.5H6.5C6.915 2.5 7.25 2.835 7.25 3.25V4.75ZM9.25 3.25H8.5V3.75H9.25V4.5H8.5V5.5H7.75V2.5H9.25V3.25ZM3.5 3.75H4V3.25H3.5V3.75ZM1 2H0V9C0 9.55 0.45 10 1 10H8V9H1V2ZM6 4.75H6.5V3.25H6V4.75Z" fill="#00C294"/>
</svg>
