<svg width="33" height="33" viewBox="0 0 33 33" fill="none" xmlns="http://www.w3.org/2000/svg">
<path fill-rule="evenodd" clip-rule="evenodd" d="M23.133 10.0019C23.133 6.43062 20.1684 3.52633 16.5229 3.52633C12.8774 3.52633 9.91277 6.43062 9.91277 10.0019C9.91277 13.5732 12.8774 16.4775 16.5229 16.4775C20.1684 16.4775 23.133 13.5732 23.133 10.0019ZM29.3862 32.6664H26.4381C25.5259 32.6664 24.7856 31.9411 24.7856 31.0475C24.7856 30.1538 25.5259 29.4286 26.4381 29.4286H27.147C28.2906 29.4286 29.135 28.3002 28.7021 27.2625C26.7009 22.4641 22.0011 19 16.5229 19C11.0448 19 6.34495 22.4641 4.34373 27.2625C3.91077 28.3002 4.75524 29.4286 5.89879 29.4286H6.6077C7.5199 29.4286 8.26023 30.1538 8.26023 31.0475C8.26023 31.9411 7.5199 32.6664 6.6077 32.6664H3.65958C1.59391 32.6664 -0.0321795 30.8159 0.405742 28.8393C1.60878 23.4014 5.36502 19.3882 10.3127 17.5669C8.05534 15.7878 6.6077 13.0616 6.6077 10.0019C6.6077 4.25321 11.7041 -0.32826 17.7111 0.35653C22.0639 0.851911 25.6697 4.24989 26.3224 8.49624C26.8843 12.1566 25.3557 15.4996 22.7331 17.5669C27.6808 19.3882 31.437 23.4014 32.6401 28.8393C33.078 30.8159 31.4519 32.6664 29.3862 32.6664ZM21.4805 31.0475C21.4805 31.9411 20.7402 32.6664 19.828 32.6664H13.2178C12.3056 32.6664 11.5653 31.9411 11.5653 31.0475C11.5653 30.1538 12.3056 29.4286 13.2178 29.4286H19.828C20.7402 29.4286 21.4805 30.1538 21.4805 31.0475Z" fill="#006066"/>
</svg>
