<svg width="39" height="39" viewBox="0 0 39 39" fill="none" xmlns="http://www.w3.org/2000/svg">
<g clip-path="url(#clip0_1224_100585)">
<path d="M39 19.5C39 30.2704 30.2704 39 19.5 39C8.7296 39 0 30.2704 0 19.5C0 8.7296 8.7296 0 19.5 0C30.2704 0 39 8.7296 39 19.5Z" fill="url(#paint0_radial_1224_100585)"/>
<path d="M37 19.5C37 29.1627 29.168 37 19.5 37C9.83202 37 2 29.1627 2 19.5C2 9.83733 9.83733 2 19.5 2C29.1627 2 37 9.83202 37 19.5Z" fill="url(#paint1_radial_1224_100585)"/>
<g style="mix-blend-mode:color-dodge">
<path d="M19.2184 1.89233C24.9705 1.89233 30.1176 4.6994 33.5084 9.08246C33.9117 9.52288 34.3415 9.91025 34.7129 10.3878C35.5514 12.001 36.6232 15.0362 36.8196 16.5114C35.8326 5.80843 26.5571 1.36169 19.2184 1.36169C11.158 1.36169 1.99921 7.01828 1.99921 18.1245C2.498 17.18 3.23028 12.4361 3.89358 11.6136C7.09862 5.80843 12.4262 1.89233 19.2184 1.89233Z" fill="#281818"/>
</g>
<g style="mix-blend-mode:color-dodge">
<path d="M26.4411 2.8315C24.6104 1.75961 20.6253 1.23428 18.3382 1.36163C16.3218 1.47307 13.6527 2.05146 12.22 2.64577C11.4824 2.95354 11.5779 3.53194 12.3208 3.22417C13.4352 2.75721 16.6561 1.94003 18.2162 1.82859C20.2008 1.69063 23.7401 2.25841 26.0059 3.13396C26.9239 3.48948 28.0383 3.76542 26.4411 2.8315Z" fill="#281818"/>
</g>
</g>
<path fill-rule="evenodd" clip-rule="evenodd" d="M26.8608 24.9993H13.0446C12.2322 24.9993 11.5713 24.3383 11.5713 23.526V14.6862C11.5713 13.8738 12.2322 13.2129 13.0446 13.2129H26.8608C27.6732 13.2129 28.3341 13.8738 28.3341 14.6862V23.526C28.3341 24.3383 27.6732 24.9993 26.8608 24.9993ZM14.5872 18.9719C14.3146 18.6563 14.1495 18.2452 14.1495 17.7963C14.1495 16.8034 14.9572 15.9956 15.9502 15.9956H15.9502C16.9432 15.9956 17.7509 16.8034 17.7509 17.7963C17.7509 18.2453 17.5858 18.6565 17.313 18.9722C18.1597 19.4499 18.7328 20.3582 18.7328 21.3978V21.7252C18.7328 21.9964 18.5129 22.2163 18.2417 22.2163H13.6581C13.3868 22.2163 13.167 21.9964 13.167 21.7252V21.3978C13.167 20.3581 13.7402 19.4496 14.5872 18.9719ZM20.7909 21.5618H26.0293C26.3006 21.5618 26.5204 21.3419 26.5204 21.0707C26.5204 20.7994 26.3006 20.5796 26.0293 20.5796H20.7909C20.5197 20.5796 20.2998 20.7994 20.2998 21.0707C20.2998 21.3419 20.5197 21.5618 20.7909 21.5618ZM26.0293 19.5973H20.7909C20.5197 19.5973 20.2998 19.3775 20.2998 19.1062C20.2998 18.835 20.5197 18.6151 20.7909 18.6151H26.0293C26.3006 18.6151 26.5204 18.835 26.5204 19.1062C26.5204 19.3775 26.3006 19.5973 26.0293 19.5973ZM20.7909 17.6329H22.7553C23.0266 17.6329 23.2464 17.4131 23.2464 17.1418C23.2464 16.8706 23.0266 16.6507 22.7553 16.6507H20.7909C20.5197 16.6507 20.2998 16.8706 20.2998 17.1418C20.2998 17.4131 20.5197 17.6329 20.7909 17.6329Z" fill="white"/>
<defs>
<radialGradient id="paint0_radial_1224_100585" cx="0" cy="0" r="1" gradientUnits="userSpaceOnUse" gradientTransform="translate(18.7745 -2.66334) scale(56.52)">
<stop stop-color="#297D65"/>
<stop offset="0.11" stop-color="#277760"/>
<stop offset="0.24" stop-color="#226953"/>
<stop offset="0.39" stop-color="#19503E"/>
<stop offset="0.54" stop-color="#0E2E20"/>
<stop offset="0.63" stop-color="#07180D"/>
</radialGradient>
<radialGradient id="paint1_radial_1224_100585" cx="0" cy="0" r="1" gradientUnits="userSpaceOnUse" gradientTransform="translate(19.0702 1.6604) scale(35.5147)">
<stop stop-color="#366859"/>
<stop offset="0.2" stop-color="#315E50"/>
<stop offset="0.55" stop-color="#244437"/>
<stop offset="0.98" stop-color="#101A10"/>
<stop offset="1" stop-color="#10190F"/>
</radialGradient>
<clipPath id="clip0_1224_100585">
<rect width="39" height="39" fill="white"/>
</clipPath>
</defs>
</svg>
