<svg width="71" height="255" viewBox="0 0 71 255" fill="none" xmlns="http://www.w3.org/2000/svg">
<path d="M2.19293 86.959C2.19293 84.47 4.20818 82.4547 6.6972 82.4547L25.874 82.4547C28.363 82.4547 30.3782 84.4699 30.3782 86.959C30.3782 89.448 28.3629 91.4633 25.8739 91.4633L6.6972 91.4633C4.20818 91.4633 2.19293 89.448 2.19293 86.959Z" fill="#FFC92B"/>
<path d="M16.2856 72.8663C18.7746 72.8663 20.7899 74.8816 20.7899 77.3706L20.7898 96.5474C20.7898 99.0364 18.7746 101.052 16.2856 101.052C13.7966 101.052 11.7813 99.0364 11.7813 96.5474V77.3706C11.7813 74.8816 13.7966 72.8663 16.2856 72.8663Z" fill="#FFC92B"/>
<g clip-path="url(#clip0_231_18307)">
<path d="M21.4808 35.66C21.4808 37.4052 22.8956 38.82 24.6408 38.82C26.386 38.82 27.8008 37.4052 27.8008 35.66C27.8008 33.9148 26.386 32.5 24.6408 32.5C22.8956 32.5 21.4808 33.9148 21.4808 35.66Z" fill="#006066"/>
<path d="M5.00031 35.66C5.00031 37.4052 6.41509 38.82 8.16031 38.82C9.90553 38.82 11.3203 37.4052 11.3203 35.66C11.3203 33.9148 9.90553 32.5 8.16031 32.5C6.41509 32.5 5.00031 33.9148 5.00031 35.66Z" fill="#006066"/>
<path d="M21.4808 51.7196C21.4808 53.4648 22.8956 54.8796 24.6408 54.8796C26.386 54.8796 27.8008 53.4648 27.8008 51.7196C27.8008 49.9744 26.386 48.5596 24.6408 48.5596C22.8956 48.5596 21.4808 49.9744 21.4808 51.7196Z" fill="#006066"/>
<path d="M5.00031 51.7196C5.00031 53.4648 6.41509 54.8796 8.16031 54.8796C9.90553 54.8796 11.3203 53.4648 11.3203 51.7196C11.3203 49.9744 9.90553 48.5596 8.16031 48.5596C6.41509 48.5596 5.00031 49.9744 5.00031 51.7196Z" fill="#006066"/>
<path d="M21.4808 3.16C21.4808 4.90522 22.8956 6.32 24.6408 6.32C26.386 6.32 27.8008 4.90522 27.8008 3.16C27.8008 1.41478 26.386 -6.1842e-08 24.6408 -1.38128e-07C22.8956 -2.14414e-07 21.4808 1.41478 21.4808 3.16Z" fill="#006066"/>
<path d="M5.00031 3.16C5.00031 4.90522 6.41509 6.32 8.16031 6.32C9.90553 6.32 11.3203 4.90522 11.3203 3.16C11.3203 1.41478 9.90553 -6.1842e-08 8.16031 -1.38128e-07C6.41509 -2.14414e-07 5.00031 1.41478 5.00031 3.16Z" fill="#006066"/>
<path d="M21.4808 19.2098C21.4808 20.955 22.8956 22.3698 24.6408 22.3698C26.386 22.3698 27.8008 20.955 27.8008 19.2098C27.8008 17.4646 26.386 16.0498 24.6408 16.0498C22.8956 16.0498 21.4808 17.4646 21.4808 19.2098Z" fill="#006066"/>
<path d="M5.00031 19.2098C5.00031 20.955 6.41509 22.3698 8.16031 22.3698C9.90553 22.3698 11.3203 20.955 11.3203 19.2098C11.3203 17.4646 9.90553 16.0498 8.16031 16.0498C6.41509 16.0498 5.00031 17.4646 5.00031 19.2098Z" fill="#006066"/>
</g>
<path d="M71 193C71 227.242 71 255 71 255C36.7583 255 9 227.242 9 193C9 158.758 36.7583 131 71 131C71 131 71 158.758 71 193Z" fill="#FFC92B"/>
<defs>
<clipPath id="clip0_231_18307">
<rect width="54.88" height="22.8" fill="white" transform="translate(27.8008) rotate(90)"/>
</clipPath>
</defs>
</svg>
