<svg width="35" height="37" viewBox="0 0 35 37" fill="none" xmlns="http://www.w3.org/2000/svg">
<path d="M17.5058 23.9315C20.2823 23.9315 22.5331 21.6807 22.5331 18.9042C22.5331 16.1277 20.2823 13.877 17.5058 13.877C14.7293 13.877 12.4785 16.1277 12.4785 18.9042C12.4785 21.6807 14.7293 23.9315 17.5058 23.9315Z" stroke="#006066" stroke-width="2.59836"/>
<path d="M20.4649 2.4016C19.8489 2.14648 19.0681 2.14648 17.5065 2.14648C15.9449 2.14648 15.1641 2.14648 14.5481 2.4016C13.7269 2.74177 13.0745 3.39422 12.7343 4.21543C12.579 4.59032 12.5183 5.02628 12.4945 5.66222C12.4595 6.59678 11.9803 7.46182 11.1703 7.92943C10.3604 8.39701 9.37165 8.37955 8.54483 7.94255C7.98221 7.64517 7.57426 7.4798 7.17196 7.42685C6.29068 7.31082 5.39941 7.54963 4.69421 8.09075C4.16531 8.49659 3.77491 9.17279 2.9941 10.5252C2.2133 11.8776 1.82289 12.5538 1.73587 13.2148C1.61986 14.096 1.85867 14.9873 2.39979 15.6925C2.64677 16.0144 2.99388 16.2849 3.53262 16.6234C4.32461 17.1211 4.83419 17.9689 4.83414 18.9041C4.83409 19.8394 4.32452 20.687 3.53261 21.1845C2.9938 21.5232 2.64663 21.7938 2.39962 22.1157C1.8585 22.8209 1.61969 23.7121 1.73572 24.5933C1.82273 25.2543 2.21313 25.9306 2.99393 27.2829C3.77476 28.6353 4.16516 29.3116 4.69405 29.7173C5.39924 30.2584 6.29051 30.4972 7.1718 30.3813C7.57406 30.3283 7.98199 30.1629 8.54458 29.8656C9.37145 29.4286 10.3603 29.4112 11.1703 29.8787C11.9802 30.3464 12.4595 31.2114 12.4945 32.1462C12.5183 32.782 12.579 33.218 12.7343 33.5929C13.0745 34.414 13.7269 35.0665 14.5481 35.4067C15.1641 35.6618 15.9449 35.6618 17.5065 35.6618C19.0681 35.6618 19.8489 35.6618 20.4649 35.4067C21.286 35.0665 21.9386 34.414 22.2786 33.5929C22.4339 33.218 22.4947 32.782 22.5185 32.146C22.5534 31.2114 23.0327 30.3464 23.8426 29.8787C24.6525 29.411 25.6413 29.4286 26.4683 29.8656C27.0309 30.1629 27.4387 30.3281 27.8409 30.3811C28.7222 30.4972 29.6136 30.2584 30.3187 29.7173C30.8476 29.3114 31.238 28.6353 32.0188 27.2828C32.7997 25.9304 33.1901 25.2543 33.2771 24.5933C33.3931 23.7121 33.1543 22.8207 32.6132 22.1156C32.3662 21.7936 32.0189 21.523 31.4802 21.1845C30.6884 20.687 30.1788 19.8392 30.1788 18.904C30.1788 17.9687 30.6884 17.1213 31.4802 16.6237C32.0191 16.2851 32.3663 16.0146 32.6133 15.6925C33.1544 14.9874 33.3932 14.0961 33.2773 13.2149C33.1903 12.5539 32.7998 11.8777 32.0189 10.5253C31.2382 9.17291 30.8478 8.49671 30.3189 8.09087C29.6137 7.54975 28.7224 7.31094 27.8411 7.42697C27.4389 7.47992 27.031 7.64527 26.4683 7.94261C25.6415 8.37964 24.6526 8.39712 23.8427 7.92948C23.0327 7.46186 22.5534 6.59674 22.5185 5.66214C22.4947 5.02625 22.4339 4.5903 22.2786 4.21543C21.9386 3.39422 21.286 2.74177 20.4649 2.4016Z" stroke="#006066" stroke-width="2.59836"/>
</svg>
