<svg width="25" height="24" viewBox="0 0 25 24" fill="none" xmlns="http://www.w3.org/2000/svg">
<path d="M8.46875 18.7295C8.1125 19.0174 7.61375 19.0831 7.19 18.8899C6.76625 18.6967 6.5 18.2848 6.5 17.8328V6.16823C6.5 5.71623 6.77 5.30433 7.19 5.11113C7.61 4.91794 8.10875 4.97991 8.46875 5.27152L15.6688 11.1038L16.1 11.4537V6.16823C16.1 5.52304 16.6363 5.00178 17.3 5.00178C17.9638 5.00178 18.5 5.52304 18.5 6.16823V17.8328C18.5 18.478 17.9638 18.9992 17.3 18.9992C16.6363 18.9992 16.1 18.478 16.1 17.8328V12.5473L15.6688 12.8972L8.46875 18.7295Z" fill="#006066"/>
</svg>
