<svg width="25" height="24" viewBox="0 0 25 24" fill="none" xmlns="http://www.w3.org/2000/svg">
<path d="M16.5313 5.27052C16.8875 4.98255 17.3863 4.91694 17.81 5.11013C18.2338 5.30333 18.5 5.71523 18.5 6.16723L18.5 17.8318C18.5 18.2838 18.23 18.6957 17.81 18.8889C17.39 19.0821 16.8912 19.0201 16.5312 18.7285L9.33125 12.8962L8.9 12.5463L8.9 17.8318C8.9 18.477 8.36375 18.9982 7.7 18.9982C7.03625 18.9982 6.5 18.477 6.5 17.8318L6.5 6.16723C6.5 5.52204 7.03625 5.00078 7.7 5.00078C8.36375 5.00078 8.9 5.52204 8.9 6.16723L8.9 11.4527L9.33125 11.1028L16.5313 5.27052Z" fill="#006066"/>
</svg>
