<svg width="360" height="800" viewBox="0 0 360 800" fill="none" xmlns="http://www.w3.org/2000/svg">
<g clip-path="url(#clip0_1871_130373)">
<g opacity="0.5">
<path d="M72.6698 543.32C74.415 543.32 75.8298 541.905 75.8298 540.16C75.8298 538.415 74.415 537 72.6698 537C70.9245 537 69.5098 538.415 69.5098 540.16C69.5098 541.905 70.9245 543.32 72.6698 543.32Z" fill="#FFC828" fill-opacity="0.5"/>
<path d="M75.8298 556.65C75.8298 558.39 74.4198 559.81 72.6698 559.81C70.9198 559.81 69.5098 558.4 69.5098 556.65C69.5098 554.9 70.9198 553.49 72.6698 553.49C74.4198 553.49 75.8298 554.9 75.8298 556.65Z" fill="#FFC828" fill-opacity="0.5"/>
<path d="M88.7294 543.32C90.4746 543.32 91.8893 541.905 91.8893 540.16C91.8893 538.415 90.4746 537 88.7294 537C86.9842 537 85.5693 538.415 85.5693 540.16C85.5693 541.905 86.9842 543.32 88.7294 543.32Z" fill="#FFC828" fill-opacity="0.5"/>
<path d="M91.8893 556.65C91.8893 558.39 90.4794 559.81 88.7294 559.81C86.9794 559.81 85.5693 558.4 85.5693 556.65C85.5693 554.9 86.9794 553.49 88.7294 553.49C90.4794 553.49 91.8893 554.9 91.8893 556.65Z" fill="#FFC828" fill-opacity="0.5"/>
<path d="M40.1698 543.32C41.915 543.32 43.3298 541.905 43.3298 540.16C43.3298 538.415 41.915 537 40.1698 537C38.4245 537 37.0098 538.415 37.0098 540.16C37.0098 541.905 38.4245 543.32 40.1698 543.32Z" fill="#FFC828" fill-opacity="0.5"/>
<path d="M43.32 556.65C43.32 558.39 41.91 559.81 40.16 559.81C38.41 559.81 37 558.4 37 556.65C37 554.9 38.41 553.49 40.16 553.49C41.91 553.49 43.32 554.9 43.32 556.65Z" fill="#FFC828" fill-opacity="0.5"/>
<path d="M56.2303 543.32C57.9755 543.32 59.3903 541.905 59.3903 540.16C59.3903 538.415 57.9755 537 56.2303 537C54.4851 537 53.0703 538.415 53.0703 540.16C53.0703 541.905 54.4851 543.32 56.2303 543.32Z" fill="#FFC828" fill-opacity="0.5"/>
<path d="M59.3796 556.65C59.3796 558.39 57.9696 559.81 56.2196 559.81C54.4696 559.81 53.0596 558.4 53.0596 556.65C53.0596 554.9 54.4696 553.49 56.2196 553.49C57.9696 553.49 59.3796 554.9 59.3796 556.65Z" fill="#FFC828" fill-opacity="0.5"/>
<path d="M137.63 543.32C139.375 543.32 140.79 541.905 140.79 540.16C140.79 538.415 139.375 537 137.63 537C135.884 537 134.47 538.415 134.47 540.16C134.47 541.905 135.884 543.32 137.63 543.32Z" fill="#FFC828" fill-opacity="0.5"/>
<path d="M140.78 556.65C140.78 558.39 139.37 559.81 137.62 559.81C135.87 559.81 134.46 558.4 134.46 556.65C134.46 554.9 135.87 553.49 137.62 553.49C139.37 553.49 140.78 554.9 140.78 556.65Z" fill="#FFC828" fill-opacity="0.5"/>
<path d="M156.84 540.16C156.84 541.9 155.43 543.32 153.68 543.32C151.93 543.32 150.52 541.91 150.52 540.16C150.52 538.41 151.93 537 153.68 537C155.43 537 156.84 538.41 156.84 540.16Z" fill="#FFC828" fill-opacity="0.5"/>
<path d="M156.84 556.65C156.84 558.39 155.43 559.81 153.68 559.81C151.93 559.81 150.52 558.4 150.52 556.65C150.52 554.9 151.93 553.49 153.68 553.49C155.43 553.49 156.84 554.9 156.84 556.65Z" fill="#FFC828" fill-opacity="0.5"/>
<path d="M105.12 543.32C106.865 543.32 108.28 541.905 108.28 540.16C108.28 538.415 106.865 537 105.12 537C103.375 537 101.96 538.415 101.96 540.16C101.96 541.905 103.375 543.32 105.12 543.32Z" fill="#FFC828" fill-opacity="0.5"/>
<path d="M108.27 556.65C108.27 558.39 106.86 559.81 105.11 559.81C103.36 559.81 101.95 558.4 101.95 556.65C101.95 554.9 103.36 553.49 105.11 553.49C106.86 553.49 108.27 554.9 108.27 556.65Z" fill="#FFC828" fill-opacity="0.5"/>
<path d="M121.181 543.32C122.926 543.32 124.341 541.905 124.341 540.16C124.341 538.415 122.926 537 121.181 537C119.435 537 118.021 538.415 118.021 540.16C118.021 541.905 119.435 543.32 121.181 543.32Z" fill="#FFC828" fill-opacity="0.5"/>
<path d="M124.33 556.65C124.33 558.39 122.92 559.81 121.17 559.81C119.42 559.81 118.01 558.4 118.01 556.65C118.01 554.9 119.42 553.49 121.17 553.49C122.92 553.49 124.33 554.9 124.33 556.65Z" fill="#FFC828" fill-opacity="0.5"/>
<path d="M291.193 86.959C291.193 84.47 293.208 82.4547 295.697 82.4547L314.874 82.4547C317.363 82.4547 319.378 84.4699 319.378 86.959C319.378 89.448 317.363 91.4633 314.874 91.4633L295.697 91.4633C293.208 91.4633 291.193 89.448 291.193 86.959Z" fill="#FFC92B"/>
<path d="M305.286 72.8663C307.775 72.8663 309.79 74.8816 309.79 77.3706L309.79 96.5474C309.79 99.0364 307.775 101.052 305.286 101.052C302.797 101.052 300.781 99.0364 300.781 96.5474V77.3706C300.781 74.8816 302.797 72.8663 305.286 72.8663Z" fill="#FFC92B"/>
<g clip-path="url(#clip1_1871_130373)">
<path d="M310.481 35.66C310.481 37.4052 311.896 38.82 313.641 38.82C315.386 38.82 316.801 37.4052 316.801 35.66C316.801 33.9148 315.386 32.5 313.641 32.5C311.896 32.5 310.481 33.9148 310.481 35.66Z" fill="#006066"/>
<path d="M294 35.66C294 37.4052 295.415 38.82 297.16 38.82C298.906 38.82 300.32 37.4052 300.32 35.66C300.32 33.9148 298.906 32.5 297.16 32.5C295.415 32.5 294 33.9148 294 35.66Z" fill="#006066"/>
<path d="M310.481 51.7196C310.481 53.4648 311.896 54.8796 313.641 54.8796C315.386 54.8796 316.801 53.4648 316.801 51.7196C316.801 49.9744 315.386 48.5596 313.641 48.5596C311.896 48.5596 310.481 49.9744 310.481 51.7196Z" fill="#006066"/>
<path d="M294 51.7196C294 53.4648 295.415 54.8796 297.16 54.8796C298.906 54.8796 300.32 53.4648 300.32 51.7196C300.32 49.9744 298.906 48.5596 297.16 48.5596C295.415 48.5596 294 49.9744 294 51.7196Z" fill="#006066"/>
<path d="M310.481 3.16C310.481 4.90522 311.896 6.32 313.641 6.32C315.386 6.32 316.801 4.90522 316.801 3.16C316.801 1.41478 315.386 -6.1842e-08 313.641 -1.38128e-07C311.896 -2.14414e-07 310.481 1.41478 310.481 3.16Z" fill="#006066"/>
<path d="M294 3.16C294 4.90522 295.415 6.32 297.16 6.32C298.906 6.32 300.32 4.90522 300.32 3.16C300.32 1.41478 298.906 -6.1842e-08 297.16 -1.38128e-07C295.415 -2.14414e-07 294 1.41478 294 3.16Z" fill="#006066"/>
<path d="M310.481 19.2098C310.481 20.955 311.896 22.3698 313.641 22.3698C315.386 22.3698 316.801 20.955 316.801 19.2098C316.801 17.4646 315.386 16.0498 313.641 16.0498C311.896 16.0498 310.481 17.4646 310.481 19.2098Z" fill="#006066"/>
<path d="M294 19.2098C294 20.955 295.415 22.3698 297.16 22.3698C298.906 22.3698 300.32 20.955 300.32 19.2098C300.32 17.4646 298.906 16.0498 297.16 16.0498C295.415 16.0498 294 17.4646 294 19.2098Z" fill="#006066"/>
</g>
<path d="M360 193C360 227.242 360 255 360 255C325.758 255 298 227.242 298 193C298 158.758 325.758 131 360 131C360 131 360 158.758 360 193Z" fill="#FFC92B"/>
<path fill-rule="evenodd" clip-rule="evenodd" d="M-3 581C13.5685 581 27 567.569 27 551C27 534.431 13.5685 521 -3 521C-19.5685 521 -33 534.431 -33 551C-33 567.569 -19.5685 581 -3 581ZM-3 569.947C7.46434 569.947 15.9474 561.464 15.9474 551C15.9474 540.536 7.46434 532.053 -3 532.053C-13.4643 532.053 -21.9474 540.536 -21.9474 551C-21.9474 561.464 -13.4643 569.947 -3 569.947Z" fill="#FFC828" fill-opacity="0.5"/>
</g>
</g>
<defs>
<clipPath id="clip0_1871_130373">
<rect width="360" height="800" fill="white"/>
</clipPath>
<clipPath id="clip1_1871_130373">
<rect width="54.88" height="22.8" fill="white" transform="translate(316.801) rotate(90)"/>
</clipPath>
</defs>
</svg>
