<svg width="177" height="133" viewBox="0 0 177 133" fill="none" xmlns="http://www.w3.org/2000/svg">
<path d="M117.196 0.151367V19.6616H101.111V39.1649H117.196V63.3466V74.1322V108.268H156.939V93.9378V63.3466V58.9774V0.151367H117.196Z" fill="#FFC92B"/>
<path d="M19.8399 54.7934V72.7923H15.2295V45.9863H19.8399L24.409 53.8728V45.9863H29.0194V72.7923H24.409V62.6799L19.8399 54.7934Z" fill="#FFC92B"/>
<path d="M31.3213 45.9863H35.9317C35.9317 46.5222 35.973 62.4876 35.973 63.47C35.973 65.0294 36.0144 68.2994 38.3024 68.2994C40.549 68.2994 40.3629 65.105 40.3629 63.47L40.3285 45.9863H44.9389V63.47C44.9389 68.4093 44.5599 72.8197 38.3024 72.8197C32.0104 72.8197 31.3213 68.2994 31.3213 63.3944V45.9863Z" fill="#FFC92B"/>
<path d="M51.8369 45.9863L54.7589 58.242L57.6809 45.9863H62.2844V72.7923H57.6809V60.5778L56.2199 67.427H53.2979L51.8369 60.5778V72.7923H47.2334V45.9863H51.8369Z" fill="#FFC92B"/>
<path d="M74.3173 64.7477C74.3173 61.4915 72.1672 60.3442 70.403 60.3442H69.2521V68.5742C72.1672 68.5811 74.3173 68.2307 74.3173 64.7477ZM69.8585 55.7552C72.622 55.7552 73.7384 54.5667 73.7384 52.7668C73.7384 50.6234 71.8157 50.1975 69.8585 50.1975H69.2452V55.7483H69.8585V55.7552ZM64.6417 45.9863H69.8654C74.9376 45.9863 78.3557 47.3672 78.3557 52.7668C78.3557 55.2193 76.7845 57.7474 74.5516 57.7474V57.8642C77.5494 57.981 79.1207 60.9281 79.1207 64.837C79.1207 70.3123 76.3159 72.7991 71.7813 72.7991H64.6348V45.9863H64.6417Z" fill="#FFC92B"/>
<path d="M81.416 45.9863H92.9386L93.8207 50.5822H86.0264V57.2459H91.9049V61.8418H86.0264V68.1964H93.8207L92.9386 72.7923H81.416V45.9863Z" fill="#FFC92B"/>
<path d="M102.042 56.7101C104.233 56.7101 105.233 55.1369 105.233 53.3439C105.233 51.2005 104.04 50.2044 102.042 50.2044H100.739V56.7169H102.042V56.7101ZM96.1289 45.9863H102.469C106.349 45.9863 109.843 47.9373 109.843 53.337C109.843 56.7032 108.382 58.8466 106.466 59.9595L110.422 72.7854H105.432L102.476 60.9144H100.746V72.7854H96.1358V45.9863H96.1289Z" fill="#FFC92B"/>
<path d="M9.17895 96.1291V88.8677C9.17895 87.2396 9.37191 84.0658 7.13218 84.0658C4.85798 84.0658 4.81663 87.322 4.81663 88.8677V96.1291H9.17895ZM0.185547 106.262V88.9364C0.185547 84.0589 0.867806 79.4424 7.13218 79.4424C13.3552 79.4424 13.7342 83.9421 13.7342 88.8609V106.262H9.14449V100.478H4.78218V106.262H0.185547Z" fill="#046269"/>
<path d="M25.0434 96.3215C25.0434 93.2301 26.0151 83.7567 23.3964 83.7567C20.7018 83.7567 20.8189 91.1417 20.8189 93.0034C20.8189 96.1361 21.0808 101.391 24.4094 101.391C25.7533 101.391 27.6622 100.904 28.8958 99.9351L29.006 104.971C27.6622 105.788 25.9738 106.235 24.4025 106.235C16.8494 106.235 16.0225 98.6298 16.0225 93.1133C16.0225 88.3388 16.0569 79.4287 23.355 79.4287C31.3974 79.4287 29.9019 90.8394 29.9019 94.8995L25.0434 96.3215Z" fill="#046269"/>
<path d="M41.3207 96.1087V88.8336C41.3207 87.2055 41.5136 84.0247 39.267 84.0247C36.9859 84.0247 36.9515 87.281 36.9515 88.8336V96.1087H41.3207ZM32.3135 106.262V88.9092C32.3135 84.0247 32.9957 79.4014 39.267 79.4014C45.4969 79.4014 45.8828 83.9079 45.8828 88.8336V106.262H41.2862V100.464H36.917V106.262H32.3135Z" fill="#046269"/>
<path d="M52.7881 84.0931V102.051H53.5945C55.7446 102.051 57.433 99.296 57.433 92.8246C57.433 87.1227 55.7446 84.0931 53.5945 84.0931H52.7881ZM48.1777 79.4629H54.0906C60.2379 79.4629 62.2708 87.1227 62.2708 92.6323C62.2708 99.296 60.2379 106.262 54.0906 106.262H48.1777V79.4629Z" fill="#046269"/>
<path d="M64.5732 79.4629H76.0958L76.9779 84.0588H69.1837V90.7156H75.0552V95.3115H69.1837V101.666H76.9779L76.0958 106.262H64.5732V79.4629Z" fill="#046269"/>
<path d="M83.8897 79.4629L86.8117 91.7117L89.7268 79.4629H94.3372V106.262H89.7268V94.0475L88.2727 100.904H85.3507L83.8897 94.0475V106.262H79.2793V79.4629H83.8897Z" fill="#046269"/>
<path d="M101.242 79.4629V88.3455C101.242 91.1003 102.317 92.172 103.544 93.6696C104.771 92.1789 105.846 91.1003 105.846 88.3455V79.4629H110.456V89.2249C110.456 93.8551 105.846 97.606 105.846 97.606H105.804V106.262H101.194V97.5717C100.732 97.187 96.625 93.6284 96.625 89.2249V79.4629H101.242Z" fill="#046269"/>
<path d="M94.3508 113.084H0.199219V132.855H94.3508V113.084Z" fill="#046269"/>
<path d="M117.189 113.043V113.063V93.2509H137.057V73.4453H156.933V113.063H156.939V113.043H176.814V132.855H156.939V132.828H156.933H117.189V132.855H100.98V113.043H117.189Z" fill="#046269"/>
</svg>
