<svg width="35" height="37" viewBox="0 0 35 37" fill="none" xmlns="http://www.w3.org/2000/svg">
<path d="M22.5509 11.8065V11.5511C22.5509 10.9335 22.0484 10.4308 21.4307 10.4308H19.8989V8.94491C21.2274 8.04542 22.0186 6.55871 22.0186 4.95471C22.0186 2.29865 19.8578 0.137695 17.2017 0.137695C14.5458 0.137695 12.385 2.29865 12.385 4.95471C12.385 6.55871 13.1761 8.0455 14.5046 8.94491V10.4308H12.9728C12.3552 10.4308 11.8527 10.9335 11.8527 11.5511V11.8065H2.41072C1.26269 11.8065 0.332031 12.7372 0.332031 13.8852V34.7873C0.332031 35.9354 1.26269 36.866 2.41072 36.866H31.9931C33.1411 36.866 34.0717 35.9354 34.0717 34.7873V13.8852C34.0717 12.7372 33.1411 11.8065 31.9931 11.8065H22.5509ZM17.2016 3.37596C18.0723 3.37596 18.7807 4.08413 18.7807 4.95464C18.7807 5.82543 18.0723 6.53353 17.2016 6.53353C16.331 6.53353 15.6227 5.82536 15.6227 4.95464C15.6227 4.08413 16.331 3.37596 17.2016 3.37596ZM22.5509 15.4506V14.2827H30.556C31.13 14.2827 31.5954 14.748 31.5954 15.322V33.3505C31.5954 33.9245 31.13 34.3898 30.556 34.3898H3.84724C3.27323 34.3898 2.8079 33.9245 2.8079 33.3505V15.322C2.8079 14.748 3.27323 14.2827 3.84724 14.2827H11.8526V15.4506H22.5509Z" fill="#006066"/>
<path d="M28.1568 29.4254C28.0523 28.8506 27.6731 28.3622 27.1379 28.1166L25.0021 27.2438C24.6865 27.0988 24.4824 26.7807 24.4824 26.4332V26.1183C24.4824 25.9813 24.5051 25.8465 24.5332 25.7487C24.589 25.6741 25.9022 23.9022 25.9022 22.2272C25.9022 20.1902 24.6103 18.7114 22.8302 18.7114C21.0502 18.7114 19.7583 20.1901 19.7583 22.2272C19.7583 23.9022 21.0715 25.6741 21.111 25.7175C21.1555 25.8465 21.178 25.9815 21.178 26.1182V26.4331C21.178 26.7807 20.9741 27.0987 20.663 27.2418L18.5182 28.1184C17.9874 28.3621 17.6081 28.8505 17.5023 29.4367L17.3828 30.9783H28.2777L28.1568 29.4254Z" fill="#006066"/>
<path d="M17.317 19.5278H6.26367V22.0631H17.317V19.5278Z" fill="#006066"/>
<path d="M14.8324 24.1421H6.26367V26.6773H14.8324V24.1421Z" fill="#006066"/>
<path d="M14.8324 28.7563H6.26367V31.2919H14.8324V28.7563Z" fill="#006066"/>
</svg>
