<svg width="33" height="34" viewBox="0 0 33 34" fill="none" xmlns="http://www.w3.org/2000/svg">
<path fill-rule="evenodd" clip-rule="evenodd" d="M29.6269 13.8742C29.1132 8.60452 25.9978 0.318848 16.3699 0.318848C6.74193 0.318848 3.62651 8.60452 3.1128 13.8742C1.31069 14.5582 0.121987 16.2884 0.129922 18.2159V20.5359C0.129922 23.0985 2.20735 25.1759 4.76994 25.1759C7.33252 25.1759 9.40991 23.0985 9.40991 20.5359V18.2159C9.40158 16.33 8.25654 14.6353 6.50993 13.9239C6.84135 10.8748 8.46535 3.63312 16.3699 3.63312C24.2744 3.63312 25.8818 10.8748 26.2132 13.9239C24.4702 14.6369 23.3309 16.3327 23.3298 18.2159V20.5359C23.337 22.3173 24.3599 23.9385 25.9647 24.7119C25.2687 26.021 23.4956 27.7941 19.1373 28.3244C18.2661 27.0015 16.5806 26.48 15.1145 27.0797C13.6484 27.6794 12.8117 29.2327 13.1174 30.787C13.4231 32.3412 14.7859 33.4615 16.3699 33.4615C17.6216 33.4546 18.7626 32.7431 19.3196 31.6221C26.4287 30.8101 28.699 27.1478 29.4115 24.9936C31.3393 24.3691 32.6358 22.5621 32.6098 20.5359V18.2159C32.6178 16.2884 31.4291 14.5582 29.6269 13.8742ZM6.09564 20.5359C6.09564 21.268 5.50211 21.8616 4.76994 21.8616C4.03777 21.8616 3.44423 21.268 3.44423 20.5359V18.2159C3.44423 17.7423 3.69691 17.3046 4.10708 17.0678C4.51726 16.831 5.02261 16.831 5.43279 17.0678C5.84297 17.3046 6.09564 17.7423 6.09564 18.2159V20.5359ZM26.6441 18.2159C26.6441 17.4837 27.2376 16.8902 27.9698 16.8902C28.702 16.8902 29.2955 17.4837 29.2955 18.2159V20.5359C29.2955 21.268 28.702 21.8616 27.9698 21.8616C27.2376 21.8616 26.6441 21.268 26.6441 20.5359V18.2159Z" fill="#006066"/>
</svg>
