<svg width="17" height="17" viewBox="0 0 17 17" fill="none" xmlns="http://www.w3.org/2000/svg">
<g filter="url(#filter0_d_673_45686)">
<path fill-rule="evenodd" clip-rule="evenodd" d="M2.16809 15.2247C2.12368 15.2247 2.08061 15.2072 2.04864 15.1749C2.00658 15.1322 1.9901 15.0699 2.00591 15.0124L2.89388 11.77C2.3434 10.7922 2.05302 9.68185 2.05369 8.55464C2.05504 4.94017 4.99621 2 8.61035 2C10.3634 2.00067 12.0105 2.68339 13.2484 3.92231C14.4863 5.16157 15.1677 6.80831 15.167 8.55935C15.1657 12.1735 12.2242 15.114 8.61035 15.114C7.53731 15.1137 6.47572 14.8488 5.53357 14.3478L2.21083 15.219C2.19669 15.223 2.18256 15.2247 2.16809 15.2247Z" fill="white"/>
<path fill-rule="evenodd" clip-rule="evenodd" d="M12.3659 4.80363C11.3632 3.80024 10.0304 3.24741 8.61182 3.24707C5.6831 3.24707 3.30115 5.62801 3.2998 8.55471C3.29947 9.55776 3.58009 10.5342 4.11173 11.3798L4.23825 11.5807L3.70156 13.5393L5.71136 13.0124L5.90551 13.1275C6.72047 13.6113 7.65521 13.8671 8.60812 13.8674H8.61014C11.5368 13.8674 13.9188 11.4861 13.9198 8.55909C13.9201 7.14082 13.3686 5.80701 12.3659 4.80363Z" fill="#40C351"/>
<path fill-rule="evenodd" clip-rule="evenodd" d="M7.01402 5.8846C6.89457 5.61878 6.76873 5.6134 6.65466 5.60869C6.56146 5.60465 6.45513 5.60499 6.3488 5.60499C6.24247 5.60499 6.06952 5.64503 5.92315 5.80486C5.77678 5.96469 5.36426 6.35063 5.36426 7.13597C5.36426 7.92132 5.93627 8.68042 6.01602 8.78675C6.09577 8.89308 7.12035 10.5563 8.74286 11.1963C10.0911 11.7279 10.3657 11.6223 10.6584 11.5957C10.9512 11.5691 11.6029 11.2097 11.7359 10.8369C11.8688 10.4641 11.8688 10.1448 11.8291 10.0782C11.789 10.0115 11.6827 9.97183 11.5232 9.89175C11.3637 9.81167 10.5787 9.42572 10.4323 9.37256C10.286 9.3194 10.1796 9.29281 10.073 9.45264C9.96664 9.61213 9.66078 9.97183 9.56757 10.0782C9.47437 10.1848 9.38116 10.1983 9.22167 10.1182C9.06218 10.0381 8.54804 9.86988 7.938 9.32613C7.46356 8.90317 7.14323 8.38062 7.05003 8.22079C6.95682 8.0613 7.03993 7.97482 7.12001 7.89507C7.19168 7.8234 7.27951 7.70866 7.35959 7.61546C7.43933 7.52225 7.46592 7.45563 7.51908 7.3493C7.57224 7.24264 7.54566 7.14943 7.50562 7.06969C7.46625 6.9896 7.15602 6.20022 7.01402 5.8846Z" fill="white"/>
</g>
<defs>
<filter id="filter0_d_673_45686" x="0.4644" y="0.4644" width="16.2382" height="16.2958" filterUnits="userSpaceOnUse" color-interpolation-filters="sRGB">
<feFlood flood-opacity="0" result="BackgroundImageFix"/>
<feColorMatrix in="SourceAlpha" type="matrix" values="0 0 0 0 0 0 0 0 0 0 0 0 0 0 0 0 0 0 127 0" result="hardAlpha"/>
<feOffset/>
<feGaussianBlur stdDeviation="0.7678"/>
<feComposite in2="hardAlpha" operator="out"/>
<feColorMatrix type="matrix" values="0 0 0 0 0 0 0 0 0 0 0 0 0 0 0 0 0 0 0.25 0"/>
<feBlend mode="normal" in2="BackgroundImageFix" result="effect1_dropShadow_673_45686"/>
<feBlend mode="normal" in="SourceGraphic" in2="effect1_dropShadow_673_45686" result="shape"/>
</filter>
</defs>
</svg>
