<svg width="26" height="26" viewBox="0 0 26 26" fill="none" xmlns="http://www.w3.org/2000/svg">
<g filter="url(#filter0_d_231_18895)">
<path fill-rule="evenodd" clip-rule="evenodd" d="M2.26977 23.2241C2.19849 23.2241 2.12937 23.1961 2.07807 23.1442C2.01056 23.0756 1.9841 22.9757 2.00948 22.8834L3.43458 17.6798C2.55112 16.1105 2.08509 14.3285 2.08617 12.5195C2.08833 6.71864 6.80858 2 12.6089 2C15.4223 2.00108 18.0657 3.09677 20.0524 5.0851C22.0391 7.07396 23.1326 9.71679 23.1316 12.527C23.1294 18.3273 18.4086 23.0465 12.6089 23.0465C10.8868 23.0459 9.18302 22.6209 7.67098 21.8169L2.33835 23.215C2.31567 23.2214 2.29299 23.2241 2.26977 23.2241Z" fill="white"/>
</g>
<path fill-rule="evenodd" clip-rule="evenodd" d="M18.6361 6.49957C17.0268 4.88925 14.8878 4.002 12.6111 4.00146C7.91085 4.00146 4.0881 7.8226 4.08594 12.5196C4.0854 14.1294 4.53577 15.6965 5.38899 17.0536L5.59203 17.376L4.73071 20.5194L7.95621 19.6737L8.2678 19.8584C9.57571 20.635 11.0759 21.0454 12.6052 21.0459H12.6084C17.3055 21.0459 21.1282 17.2242 21.1298 12.5267C21.1304 10.2505 20.2453 8.10989 18.6361 6.49957Z" fill="#40C351"/>
<path fill-rule="evenodd" clip-rule="evenodd" d="M10.0461 8.23441C9.85442 7.8078 9.65245 7.79916 9.46939 7.7916C9.31981 7.78512 9.14916 7.78566 8.97852 7.78566C8.80787 7.78566 8.53031 7.84992 8.2954 8.10642C8.06049 8.36293 7.39844 8.98233 7.39844 10.2427C7.39844 11.5031 8.31646 12.7214 8.44444 12.892C8.57243 13.0627 10.2168 15.732 12.8207 16.7591C14.9845 17.6123 15.4252 17.4427 15.895 17.4001C16.3648 17.3574 17.4108 16.7807 17.6241 16.1823C17.8374 15.584 17.8374 15.0715 17.7737 14.9646C17.7095 14.8577 17.5388 14.7939 17.2828 14.6654C17.0269 14.5369 15.767 13.9175 15.5321 13.8322C15.2972 13.7469 15.1266 13.7042 14.9554 13.9607C14.7847 14.2167 14.2939 14.7939 14.1443 14.9646C13.9947 15.1358 13.8451 15.1574 13.5892 15.0289C13.3332 14.9003 12.508 14.6303 11.529 13.7577C10.7676 13.0789 10.2535 12.2402 10.1039 11.9837C9.95432 11.7278 10.0877 11.589 10.2162 11.461C10.3312 11.346 10.4722 11.1618 10.6007 11.0122C10.7287 10.8627 10.7714 10.7557 10.8567 10.5851C10.942 10.4139 10.8993 10.2643 10.8351 10.1363C10.7719 10.0078 10.274 8.74094 10.0461 8.23441Z" fill="white"/>
<defs>
<filter id="filter0_d_231_18895" x="0" y="0" width="25.1318" height="25.2241" filterUnits="userSpaceOnUse" color-interpolation-filters="sRGB">
<feFlood flood-opacity="0" result="BackgroundImageFix"/>
<feColorMatrix in="SourceAlpha" type="matrix" values="0 0 0 0 0 0 0 0 0 0 0 0 0 0 0 0 0 0 127 0" result="hardAlpha"/>
<feOffset/>
<feGaussianBlur stdDeviation="1"/>
<feComposite in2="hardAlpha" operator="out"/>
<feColorMatrix type="matrix" values="0 0 0 0 0 0 0 0 0 0 0 0 0 0 0 0 0 0 0.25 0"/>
<feBlend mode="normal" in2="BackgroundImageFix" result="effect1_dropShadow_231_18895"/>
<feBlend mode="normal" in="SourceGraphic" in2="effect1_dropShadow_231_18895" result="shape"/>
</filter>
</defs>
</svg>
