<svg width="10" height="10" viewBox="0 0 10 10" fill="none" xmlns="http://www.w3.org/2000/svg">
<path d="M5.8801 0.00413913L0.165816 1.06686C0.0693559 1.08484 0 1.17079 0 1.26691V8.73098C0 8.8271 0.0693559 8.91305 0.165816 8.93102L5.8801 9.99375C5.89286 9.99609 5.90561 10 5.91837 10C5.9654 10 6.00925 9.98594 6.04592 9.95624C6.09295 9.91795 6.12245 9.85935 6.12245 9.79996V0.19793C6.12245 0.138543 6.09295 0.0799363 6.04592 0.0416471C5.99888 0.00335773 5.93989 -0.00680068 5.8801 0.00413913ZM6.53061 1.19814V2.59844H6.93878V2.99852H6.53061V3.99873H6.93878V4.39882H6.53061V5.39903H6.93878V5.79911H6.53061V6.99937H6.93878V7.39945H6.53061V8.79975H9.59184C9.81665 8.79975 10 8.62002 10 8.39966V1.59823C10 1.37787 9.81665 1.19814 9.59184 1.19814H6.53061ZM7.34694 2.59844H8.97959V2.99852H7.34694V2.59844ZM1.3648 3.13605H2.41071L2.95918 4.25504C3.00223 4.34334 3.0405 4.45195 3.07398 4.57385H3.08036C3.10188 4.50118 3.14334 4.3871 3.20153 4.24253L3.8074 3.13605H4.76403L3.62245 4.98644L4.79592 6.87434H3.78189L3.11862 5.65533C3.09391 5.61001 3.0684 5.5264 3.04209 5.40528H3.03571C3.02296 5.46232 2.99267 5.5514 2.94643 5.66784L2.28316 6.87434H1.26276L2.48087 5.0052L1.3648 3.13605ZM7.34694 3.99873H8.97959V4.39882H7.34694V3.99873ZM7.34694 5.39903H8.97959V5.79911H7.34694V5.39903ZM7.34694 6.99937H8.97959V7.39945H7.34694V6.99937Z" fill="#00C294"/>
</svg>
